<?xml version="1.0" encoding="iso-8859-1"?>
<!-- Generator: Adobe Illustrator 19.0.0, SVG Export Plug-In . SVG Version: 6.00 Build 0)  -->
<svg version="1.1" id="Capa_1" xmlns="http://www.w3.org/2000/svg" xmlns:xlink="http://www.w3.org/1999/xlink" x="0px" y="0px"
	 viewBox="0 0 480 480" style="enable-background:new 0 0 480 480;" xml:space="preserve">
<g>
	<g>
		<path d="M456,0H168c-13.255,0-24,10.745-24,24v176H40c-13.255,0-24,10.745-24,24v160H8c-4.418,0-8,3.582-8,8
			c0.026,22.08,17.92,39.974,40,40h256c22.069,0.022,39.978-17.851,40-39.92c0-0.027,0-0.053,0-0.08c0-4.418-3.582-8-8-8h-8v-88h88
			c4.418,0,8-3.582,8-8s-3.582-8-8-8h-41.968l-11.424-40H456c13.255,0,24-10.745,24-24V24C480,10.745,469.255,0,456,0z M32,224
			c0-4.418,3.582-8,8-8h256c4.418,0,8,3.582,8,8v160H192c-4.418,0-8,3.582-8,8h-32c0-4.418-3.582-8-8-8H32V224z M313.024,408.944
			c-4.519,4.51-10.64,7.047-17.024,7.056H40c-10.168-0.012-19.229-6.418-22.632-16H136c0,4.418,3.582,8,8,8h48c4.418,0,8-3.582,8-8
			h118.632C317.44,403.356,315.525,406.409,313.024,408.944z M320,280v-40h17.968l11.424,40H320z M464,216c0,4.418-3.582,8-8,8H320
			c0-13.255-10.745-24-24-24H160V24c0-4.418,3.582-8,8-8h288c4.418,0,8,3.582,8,8V216z"/>
	</g>
</g>
<g>
	<g>
		<path d="M440,304h-64c-13.255,0-24,10.745-24,24v128c0,13.255,10.745,24,24,24h64c13.255,0,24-10.745,24-24V328
			C464,314.745,453.255,304,440,304z M448,456c0,4.418-3.582,8-8,8h-64c-4.418,0-8-3.582-8-8V328c0-4.418,3.582-8,8-8h64
			c4.418,0,8,3.582,8,8V456z"/>
	</g>
</g>
<g>
</g>
<g>
</g>
<g>
</g>
<g>
</g>
<g>
</g>
<g>
</g>
<g>
</g>
<g>
</g>
<g>
</g>
<g>
</g>
<g>
</g>
<g>
</g>
<g>
</g>
<g>
</g>
<g>
</g>
</svg>
