<?xml version="1.0" encoding="utf-8"?>
<!-- Generator: Adobe Illustrator 20.1.0, SVG Export Plug-In . SVG Version: 6.00 Build 0)  -->
<svg version="1.1" id="b43bf247-fd00-4c66-86de-2f4e4870ba29"
	 xmlns="http://www.w3.org/2000/svg" xmlns:xlink="http://www.w3.org/1999/xlink" x="0px" y="0px" viewBox="0 0 1113.6 784.4"
	 style="enable-background:new 0 0 1113.6 784.4;" xml:space="preserve">
<style type="text/css">
	.st0{opacity:0.1;fill:#6C63FF;enable-background:new    ;}
	.st1{opacity:0.1;fill:#FFF064;enable-background:new    ;}
	.st2{opacity:0.1;}
	.st3{fill:#3F3D56;}
	.st4{fill:#FFEC64;}
	.st5{opacity:0.1;enable-background:new    ;}
	.st6{fill:#FFE164;}
	.st7{fill:none;stroke:#3F3D56;stroke-width:7;stroke-linecap:round;stroke-miterlimit:10;}
	.st8{fill:#A8A8A8;}
	.st9{opacity:0.2;enable-background:new    ;}
	.st10{fill:url(#SVGID_1_);}
	.st11{fill:#696791;}
	.st12{fill:#A0616A;}
	.st13{fill:#FFC107;}
	.st14{fill:#2D293D;}
</style>
<title>visual data</title>
<ellipse class="st0" cx="965" cy="767.4" rx="64" ry="17"/>
<path class="st1" d="M1070.6,694.9c-24.3,20.2-59,28.6-92.5,33.8l-5.6,0.9c-35,5.2-70.4,8-105.9,9.7c-19,0.9-38,1.6-57,2.2
	l-14.9,0.4c-19.3,0.6-38.7,1.1-58.1,1.7c-19,0.5-38,1-57,1.5c-24.3,0.6-48.7,1.1-73,1.5c-19,0.3-38,0.5-57,0.6
	c-24.3,0.1-48.7,0.1-73-0.1c-19-0.2-38-0.5-57-1c-24.3-0.6-48.7-1.5-73-2.8c-16.5-0.8-33-1.8-49.5-2.9l-7.5-0.5
	c-70.8-5.1-142.8-14.2-204.7-43.2l-1.7-0.8c-0.8-0.4-1.7-0.8-2.5-1.2c-11.4-5.4-22.3-11.8-32.6-19.1c-18.3-13.1-33.4-29-41.4-47.9
	c-12.5-29.7-5.9-63,8.4-92c14.3-29,35.8-55.2,54.3-82.5c5.4-8,10.6-16.3,15.4-24.8c30-53.4,44.9-115.1,13.4-166.6
	c-4.2-6.6-8.6-12.9-13.4-19c-7.7-10-15.5-20-20.7-31.1c-12.3-25.8-9.7-54.7-5.2-82.2c6-36.6,17-76,51.4-98.9
	c35.7-23.7,86.3-22.5,130.6-14c68.8,13.2,132.4,40.8,196.5,65.7s131.3,47.7,201.8,50.1c15.1,0.5,30.3,0,45.4-1.6l0,0
	c20.1-2.1,39.9-6.2,59.1-12.4c27.8-9.1,53-22.9,71.7-42c40.2-40.8,115.6-43.9,170-19.3c51.9,23.5,85.5,73.4,83,123.1
	c-2.8,55.4-44.3,100.9-82.3,147.6c-4.6,5.7-9.2,11.3-13.6,17.1c-2.5,3.2-4.9,6.4-7.3,9.6l0,0c-4.2,5.7-8.2,11.4-12,17.1
	c-19.4,29.5-33.2,65-19.8,96.9c7.5,17.8,21.8,31.5,39.1,43.4c38.7,26.6,92,44.6,116,81.8C1109.1,625.8,1101.5,669.2,1070.6,694.9z"
	/>
<g class="st2">
	<path class="st3" d="M555.5,549.4c0,0.9,0.1,1.9,0.2,2.8c7.8-3.1,15.4-6.4,22.9-10c4-0.5,7.7-2.3,10.6-5.2c2.2-1.1,4.4-2.2,6.5-3.4
		c-0.5-1-1-2-1.7-3c-4.2-6.7-10.6-10.8-17.7-10.6s-13.2,4.8-16.9,11.7C556.6,537.1,555.2,543.2,555.5,549.4z"/>
	<path class="st3" d="M554.3,514.4c0.2,6.1,1.9,12.1,5.2,17.3c4.2,6.6,10.6,10.8,17.7,10.6c0.5,0,1-0.1,1.5-0.1
		c4-0.5,7.7-2.3,10.6-5.2c2-1.9,3.6-4,4.9-6.4c5.7-11.1,5.3-24.3-1.1-35c-4.2-6.7-10.6-10.8-17.7-10.6s-13.1,4.8-16.9,11.7
		C555.5,502.1,554.1,508.2,554.3,514.4z"/>
	
		<ellipse transform="matrix(0.9995 -3.280630e-02 3.280630e-02 0.9995 -15.3941 19.1238)" class="st3" cx="575.1" cy="478.7" rx="21.9" ry="28.6"/>
	
		<ellipse transform="matrix(0.9995 -3.280630e-02 3.280630e-02 0.9995 -14.2477 19.0674)" class="st3" cx="573.9" cy="443.7" rx="21.9" ry="28.6"/>
	
		<ellipse transform="matrix(0.9995 -3.280630e-02 3.280630e-02 0.9995 -13.101 19.0109)" class="st3" cx="572.8" cy="408.7" rx="21.9" ry="28.6"/>
	<path class="st4" d="M646.8,166.8c2.9-3.9,5.4-8,7.7-12.2l-57.7-7.5l62.1-1.6c11.2-26.6,10.9-56.6-0.7-83l-81.9,45.9l75-59
		c-30.8-49-95.5-63.7-144.4-32.9c-49,30.8-63.7,95.5-32.9,144.4c2.5,4,5.3,7.8,8.3,11.4c-4.5,6.1-8.2,12.6-11.3,19.5l75.8,36.3
		l-80.4-24.1c-10.2,33.9-2.7,70.7,20.1,97.8c-34.2,46.6-24.2,112.2,22.4,146.4c46.6,34.2,112.2,24.2,146.4-22.4
		c28.6-39,26.8-92.5-4.3-129.4C679.6,257.3,677.9,203.8,646.8,166.8z"/>
	<path class="st5" d="M461.9,237.6c0.7,23.5,9.4,46,24.5,64c-34.2,46.6-24.2,112.2,22.4,146.4c46.6,34.2,112.2,24.2,146.4-22.4
		c28.6-39,26.9-92.4-4.3-129.4C664.4,277.9,461.5,225.9,461.9,237.6z"/>
</g>
<g class="st2">
	<path class="st3" d="M326.2,733.6c0,0.7-0.1,1.3-0.1,2c-5.5-2.2-11-4.6-16.3-7.1c-2.8-0.4-5.5-1.7-7.5-3.7
		c-1.6-0.8-3.1-1.6-4.6-2.4c0.3-0.7,0.7-1.4,1.2-2.1c3-4.7,7.5-7.7,12.6-7.5s9.4,3.4,12,8.3C325.3,724.9,326.3,729.2,326.2,733.6z"
		/>
	<path class="st3" d="M327,708.7c-0.1,4.4-1.4,8.6-3.6,12.3c-3,4.7-7.5,7.7-12.6,7.5l-1-0.1c-2.8-0.4-5.5-1.7-7.5-3.7
		c-1.4-1.3-2.6-2.9-3.5-4.5c-4.1-7.9-3.8-17.3,0.8-24.9c3-4.7,7.5-7.7,12.6-7.5s9.4,3.4,12,8.3C326.2,700,327.2,704.3,327,708.7z"/>
	
		<ellipse transform="matrix(3.158516e-02 -0.9995 0.9995 3.158516e-02 -380.6393 973.8111)" class="st3" cx="312.2" cy="683.3" rx="20.4" ry="15.6"/>
	
		<ellipse transform="matrix(3.158516e-02 -0.9995 0.9995 3.158516e-02 -355.0135 950.488)" class="st3" cx="313" cy="658.4" rx="20.4" ry="15.6"/>
	
		<ellipse transform="matrix(3.158516e-02 -0.9995 0.9995 3.158516e-02 -329.3676 927.1655)" class="st3" cx="313.8" cy="633.6" rx="20.4" ry="15.6"/>
	<path class="st6" d="M260.9,461.4c-2-2.8-3.9-5.7-5.5-8.7l41.1-5.5l-44.2-1c-8-18.9-7.8-40.3,0.4-59.1l58.3,32.6l-53.4-41.9
		c21.8-34.9,67.7-45.6,102.7-23.9c34.9,21.8,45.6,67.7,23.9,102.7c-1.8,3-3.9,5.8-6.1,8.5c3.2,4.3,5.9,9,8.1,13.9l-53.9,25.9
		l57.2-17.2c7.3,24.1,2,50.3-14.2,69.6c24.4,33.1,17.3,79.8-15.8,104.2s-79.8,17.3-104.2-15.8c-20.4-27.7-19.2-65.8,2.9-92.1
		C237.6,525.8,238.8,487.7,260.9,461.4L260.9,461.4z"/>
	<path class="st5" d="M392.5,511.6c-0.5,16.7-6.6,32.8-17.4,45.6c24.4,33.1,17.3,79.8-15.8,104.2s-79.8,17.3-104.2-15.8
		c-20.4-27.7-19.2-65.8,2.9-92.1C248.4,540.5,392.8,503.3,392.5,511.6z"/>
</g>
<g class="st2">
	<path class="st3" d="M846.9,603.5c0,0.7-0.1,1.3-0.1,2c-5.5-2.2-11-4.6-16.3-7.1c-2.8-0.4-5.5-1.7-7.5-3.7
		c-1.5-0.8-3.1-1.6-4.7-2.4c0.4-0.7,0.7-1.4,1.2-2.1c3-4.7,7.5-7.7,12.6-7.5s9.4,3.4,12,8.3C846.1,594.8,847.1,599.2,846.9,603.5z"
		/>
	<path class="st3" d="M847.8,578.6c-0.1,4.4-1.4,8.6-3.7,12.3c-3,4.7-7.5,7.7-12.6,7.5l-1-0.1c-2.8-0.4-5.5-1.7-7.5-3.7
		c-1.4-1.3-2.6-2.9-3.5-4.5c-4.1-7.9-3.8-17.3,0.8-24.9c3-4.7,7.5-7.7,12.6-7.5s9.4,3.4,12,8.3C847,569.9,848,574.3,847.8,578.6z"/>
	
		<ellipse transform="matrix(3.158516e-02 -0.9995 0.9995 3.158516e-02 253.7075 1368.4048)" class="st3" cx="833" cy="553.3" rx="20.4" ry="15.6"/>
	
		<ellipse transform="matrix(3.158516e-02 -0.9995 0.9995 3.158516e-02 279.3433 1345.092)" class="st3" cx="833.8" cy="528.4" rx="20.4" ry="15.6"/>
	
		<ellipse transform="matrix(3.158516e-02 -0.9995 0.9995 3.158516e-02 304.9786 1321.7792)" class="st3" cx="834.6" cy="503.5" rx="20.4" ry="15.6"/>
	<path class="st4" d="M781.7,331.3c-2-2.8-3.9-5.7-5.5-8.7l41.1-5.4l-44.2-1.1c-8-18.9-7.8-40.3,0.4-59.1l58.3,32.6l-53.4-41.9
		c21.7-35,67.6-45.8,102.6-24.1c35,21.7,45.8,67.6,24.1,102.6c-1.9,3-4,6-6.3,8.7c3.2,4.3,5.9,9,8.1,13.9l-53.9,25.9l57.2-17.2
		c7.3,24.1,2,50.3-14.2,69.6c24.4,33.1,17.3,79.8-15.8,104.2c-33.1,24.4-79.8,17.3-104.2-15.8c-20.4-27.7-19.2-65.8,2.9-92.1
		C758.4,395.8,759.6,357.7,781.7,331.3L781.7,331.3z"/>
	<path class="st5" d="M913.3,381.6c-0.5,16.7-6.6,32.8-17.4,45.6c24.4,33.1,17.3,79.8-15.8,104.2c-33.1,24.4-79.8,17.3-104.2-15.8
		c-20.4-27.7-19.2-65.8,2.9-92.1C769.2,410.5,913.5,373.2,913.3,381.6z"/>
</g>
<ellipse class="st4" cx="193.5" cy="750.9" rx="57" ry="11"/>
<ellipse class="st3" cx="192.6" cy="746.2" rx="6.6" ry="8.7"/>
<ellipse class="st3" cx="192.6" cy="735.6" rx="6.6" ry="8.7"/>
<ellipse class="st3" cx="192.6" cy="725" rx="6.6" ry="8.7"/>
<ellipse class="st3" cx="192.6" cy="714.4" rx="6.6" ry="8.7"/>
<ellipse class="st3" cx="192.6" cy="703.8" rx="6.6" ry="8.7"/>
<ellipse class="st3" cx="192.6" cy="693.1" rx="6.6" ry="8.7"/>
<ellipse class="st3" cx="192.6" cy="682.5" rx="6.6" ry="8.7"/>
<path class="st4" d="M217.4,609.8c0.9-1.2,1.7-2.4,2.5-3.6l-17.4-2.9l18.9,0.2c3.7-8,3.9-17.1,0.6-25.2l-25.3,13.1l23.3-17.2
	c-8.8-15.2-28.3-20.4-43.5-11.6c-15.2,8.8-20.4,28.3-11.6,43.5c0.7,1.3,1.6,2.5,2.5,3.7c-1.4,1.8-2.6,3.7-3.6,5.8l22.6,11.8
	l-24.1-8.1c-3.4,10.2-1.5,21.4,5.1,29.9c-10.9,13.8-8.5,33.8,5.3,44.7c13.8,10.9,33.8,8.5,44.7-5.3c9.1-11.5,9.1-27.8,0-39.3
	C226.5,637.6,226.5,621.3,217.4,609.8L217.4,609.8z"/>
<path class="st5" d="M160.6,629.5c0,7.1,2.4,14.1,6.8,19.7c-10.9,13.8-8.5,33.8,5.3,44.7c13.8,10.9,33.8,8.5,44.7-5.3
	c9.1-11.5,9.1-27.8,0-39.3C221.7,643.7,160.6,625.9,160.6,629.5z"/>
<path class="st3" d="M346.5,517.2v226c-16.5-0.8-33-1.8-49.5-2.9l-7.5-0.5V517.2c0-4.9,3.9-8.8,8.8-8.8l0,0h39.4
	C342.6,508.4,346.5,512.3,346.5,517.2z"/>
<path class="st3" d="M419.5,746V366.2c0-4.9,3.9-8.8,8.8-8.8l0,0h39.4c4.9,0,8.8,3.9,8.8,8.8l0,0V747L419.5,746z"/>
<path class="st3" d="M549.5,747.2v-302c0-4.9,3.9-8.8,8.8-8.8l0,0h39.4c4.9,0,8.8,3.9,8.8,8.8l0,0v301.4L549.5,747.2z"/>
<path class="st3" d="M736.5,221.2v522.3c-19,0.5-38,1-57,1.5V221.2c0-4.9,3.9-8.8,8.8-8.8l0,0h39.4
	C732.6,212.4,736.5,216.3,736.5,221.2L736.5,221.2z"/>
<path class="st3" d="M866.5,326.2v413c-19,0.9-38,1.6-57,2.2V326.2c0-4.9,3.9-8.8,8.8-8.8l0,0h39.4
	C862.6,317.4,866.5,321.3,866.5,326.2L866.5,326.2z"/>
<polyline class="st7" points="318.5,385.4 448.5,240.4 578.5,313.4 708.5,89.4 838.5,196.4 "/>
<circle class="st4" cx="318" cy="385.4" r="28"/>
<circle class="st4" cx="448" cy="240.4" r="28"/>
<circle class="st4" cx="578" cy="313.4" r="28"/>
<circle class="st4" cx="708" cy="89.4" r="28"/>
<circle class="st4" cx="958" cy="327.4" r="28"/>
<ellipse class="st0" cx="233.7" cy="722.6" rx="18.7" ry="3.2"/>
<path class="st8" d="M221.1,707.9c0,0,10.6-0.3,13.9-2.6s16.4-5,17.2-1.3s16,18.2,4,18.3s-28-1.9-31.1-3.8S221.1,707.9,221.1,707.9z
	"/>
<path class="st9" d="M256.4,721c-12,0.1-27.9-1.9-31.1-3.8c-2.4-1.5-3.4-6.8-3.7-9.3h-0.4c0,0,0.7,8.6,3.9,10.5s19.1,3.9,31.1,3.8
	c3.5,0,4.7-1.3,4.6-3.1C260.3,720.3,259,721,256.4,721z"/>
<ellipse class="st0" cx="1063.8" cy="749.4" rx="34.3" ry="5.8"/>
<path class="st8" d="M1040.8,722.5c0,0,19.6-0.6,25.5-4.8s30.1-9.2,31.6-2.5s29.4,33.5,7.3,33.7s-51.3-3.4-57.2-7
	S1040.8,722.5,1040.8,722.5z"/>
<path class="st9" d="M1105.5,746.5c-22.1,0.2-51.3-3.4-57.2-7c-4.5-2.7-6.3-12.5-6.9-17h-0.7c0,0,1.2,15.8,7.1,19.4s35.1,7.2,57.2,7
	c6.4,0,8.6-2.3,8.5-5.7C1112.7,745.2,1110.2,746.5,1105.5,746.5z"/>
<linearGradient id="SVGID_1_" gradientUnits="userSpaceOnUse" x1="906.7431" y1="176.4502" x2="1063.3494" y2="176.4502" gradientTransform="matrix(-1 0 0 -1 1912.79 728.21)">
	<stop  offset="0" style="stop-color:#808080;stop-opacity:0.25"/>
	<stop  offset="0.54" style="stop-color:#808080;stop-opacity:0.12"/>
	<stop  offset="1" style="stop-color:#808080;stop-opacity:0.1"/>
</linearGradient>
<path class="st10" d="M849.6,344.6c0.2,1.8,0.9,3.4,2,4.8c1.5,1.6,3.6,2.4,5.6,3.4c5,2.6,8.9,7,10.8,12.4c3.3,9.7,3.8,20,8,29.4
	s9.2,18.4,12.9,28c2.1,5.5,3.7,11.1,6.8,16.1c1.5,2.4,3.4,4.6,5.6,6.4c-0.2,3.5-0.3,7-0.3,10.5c1.4,0,2.7,0.7,3.4,1.8
	c0.7,1.1,1.2,2.4,1.5,3.8c1.4,5.7-0.3,11.7,0.9,17.4c3.4,15.9,2.3,32.3-3,47.6c-1.4,3.9-3.1,16.7-1.6,20.6c5.4-0.5,10.3,2.8,15.3,5
	c0.4,3,0.2,6.1-0.7,9c-1.8,5.3-1.8,11-1.8,16.6l0.2,41.3c0,5.2,0.1,10.5,1.4,15.6c1.5,5.7,4.6,11.5,4.5,17.4
	c-0.3,12.7,5.7,24.8,5.2,37.4c-0.1,2.4-0.4,4.8-0.7,7.2c-0.6,6.4-0.4,12.8,0.5,19.2c1.8,12.7,6.6,25.1,5.4,37.8
	c-0.1,0.9-0.4,2-1.2,2.3c1,1.1,2.1,2.2,3.1,3.3c-0.2,0.4-0.5,0.7-0.9,0.9c-1.2,0.6-2.5,1-3.8,1c-1.6,0-3.1,0.5-4.4,1.4
	c-0.9,0.9-1.6,2.1-1.8,3.3c-0.7,2.5-0.3,5.3,1.2,7.5c0.9,1.1,2.1,2,3.4,2.5c4.6,2,9.9,0.5,14.7-0.9l18.9-5.7
	c1.2-0.2,2.2-0.8,3.1-1.6c0.4-0.5,0.7-1,0.8-1.6c4.2,1,8.8-0.2,13-1.5l18.9-5.7c1.2-0.2,2.2-0.8,3.1-1.6c0.7-0.8,1-1.9,0.8-3
	c0.1-0.1,0.3-0.1,0.4-0.2c1.4-0.7,3-1.9,2.7-3.5c-0.2-1-1.2-1.6-1.7-2.5c-0.4-1.2-0.1-2.6,0.7-3.5c0.7-1,1.7-1.8,2.4-2.9
	c2.2-3.3,0.7-7.7-0.1-11.6c-1.8-8.3-0.1-17.1-1.2-25.5c-0.4-2.8-1.1-5.7-1.6-8.5c-1.2-6.7-1.9-13.4-2.3-20.2
	c-0.7-9.7-3.4-19.2-1.9-28.8c0.7-5.6,1.1-11.3,0.9-17c0.1-3.6,0-7.2-0.5-10.8c-0.4-2.7-1.1-5.3-1.4-8c-0.2-3-0.3-6.1-0.2-9.1
	c0.1-6.8-0.5-13.5-1.9-20.1c-2-9.1-5.8-17.8-7.4-26.9c0.5,0.1,1.1,0.2,1.6,0.4c0.1-7-6.1-22.2-8.3-28.9c-0.3-0.8-0.5-1.7-0.6-2.5
	c0.1-1.2,0.3-2.3,0.6-3.4c0.3-2.4-1-4.7-1.3-7.1c-0.1-1.7,0-3.4,0.4-5.1c1.6-9,3.6-17.8,5.6-26.7c0.9-3.2,1.2-6.6,0.9-9.9
	c-0.5-3.6,0.6-7.1,3-9.8c0.9-0.8,1.6-1.8,2.2-2.8c0.3-0.9,0.5-1.8,0.4-2.8c0-4.1-0.6-8.2-1.8-12.1c1.8-3.2,2.4-7.1,2.9-10.8
	c1.1-8.2,2.2-16.4,2.2-24.6c0.1-4.4-0.5-8.8-1.8-13c-0.9-2.6-2.1-5.1-3.4-7.5c-5.3-10.1-10.3-20.8-16.9-30.1
	c-2-2.8-0.7-6.7-0.6-10.2c0.2-4.2-1.5-8.2-3.1-12.1c-0.8-2.4-2.1-4.6-3.8-6.5c-1.1-1.2-2.7-2-4.4-2c-1.9,0.2-3.6,1.3-4.7,2.9
	c-2.4,3.3-3.5,7.5-2.8,11.6c0.7,4,2.4,7.8,5.1,10.9c1.3,1.6,2.8,3,4.4,4.2c1.7,5.3,3.3,10.5,5,15.8c2.6,8.4,5.3,16.7,9,24.6
	c1.1,2.3,2.3,4.6,2.4,7.1c0.1,2.7-1,5.3-1.9,7.9c-1.9,5.4-3,11-3.2,16.7c-0.3,0.1-0.6,0.3-0.8,0.5c-3.2,2.1-4.1,6.5-7.4,8.4
	c-1.9,1.1-4.2,1-6.4,1.5c-0.2,0-0.4,0.1-0.6,0.2c-0.1-0.4-0.2-0.8-0.2-1.2c0-0.3,0-0.5,0-0.8c5.1-2.8,9.4-6.9,12.4-11.8
	c0.6-0.9,1.1-1.9,1.5-3c0.3-1.3,0.3-2.6,0.2-3.9c-0.2-4.3-0.8-8.6-1.8-12.9c-1.1-4.2-3.4-8-6.7-10.9c-1.6-1.3-3.5-2.3-5.2-3.6
	c-3.2-2.6-5.4-6.4-9-8.3c-4.8-2.3-10.6-0.8-13.6,3.5c-0.5,1-1.2,1.8-2,2.5c-0.6,0.3-1.3,0.6-1.9,1c-1.1,0.9-1.2,2.6-0.8,3.9
	c0.7,2.8,1.1,5.7,1.1,8.6c-6.7,7.8-6.7,19.3-0.1,27.2c0,1.9,0,3.7-0.1,5.6c0,0.4,0,0.7-0.1,1.1c-1.2-0.4-2.2-1.1-3-2
	c-1.1-1.4-1.3-3.5-2.7-4.6c-1-0.6-2.1-1.1-3.3-1.2c-2.9-0.7-5.6-2-8-3.8c-1.8-1.4-3.8-3.3-5.9-3.7c-3.7-7-8.1-13.6-13-19.8
	c-1.2-1.5-2.4-3-3.4-4.7c-2.2-3.8-2.8-8.2-4.2-12.3c-3.8-11.5-13.3-20.8-15.6-32.7c-0.8-4.3-3.6-8.1-5.5-12.1
	c-1.3-2.7-2.7-5.5-5.2-7.1c-3.3-2-7.8-1.1-10.5,1.6C850.2,336.8,849,340.7,849.6,344.6z M968.3,749.3c-1.2,0.6-2.5,1-3.8,1
	c-0.7,0.1-1.3,0.2-2,0.3c-0.2-2.1-0.4-4.2-0.5-6.3c-0.5-6.8-1.6-13.5-2.6-20.3c-1.1-7-1.6-14.7-4-21.4c-3.8-10.9-7.7-22.2-7.2-33.8
	c0.1-2.6,0.4-5.2,0.6-7.9c0.3-6.5-0.6-13.1,1-19.4c0.7-2.9,1.9-5.6,2.4-8.5c0.3-2.6,0.3-5.3,0.1-7.9c-0.4-9.2,0.3-18.4,2.3-27.3
	c1.9,2.4,2.5,5.6,3,8.6l3.8,20.3c2.2,12.1,4.2,24.9,10.1,35.6c-0.8,3.9-1.7,8-0.3,11.7c0.6,1.6,1.6,3,2.2,4.6c1,2.7,0.9,5.7,1.2,8.5
	c0.7,6,3.1,11.9,1.3,17.7c-1.9,6-3.1,12.1-3.6,18.4c-0.1,1.7-0.3,3.5-0.6,5.2c-0.3,1.5-0.8,3-1.1,4.6c-0.4,2.2-0.3,4.5,0.3,6.7
	c0.4,1.2,0.7,2.5,0.8,3.8c0,1.3-1.6,2.2-2.8,2.4c0.4,0.5,0.8,0.9,1.2,1.4C969.5,747.9,969,748.7,968.3,749.3z"/>
<path class="st3" d="M928.8,760.8c-1.6,0-3.1,0.5-4.4,1.4c-0.9,0.9-1.6,2-1.8,3.3c-0.7,2.5-0.3,5.2,1.2,7.4c0.9,1.1,2.1,2,3.4,2.5
	c4.6,2,9.9,0.5,14.7-0.9l18.9-5.7c1.2-0.2,2.2-0.8,3.1-1.6c1.1-1.4,1.1-3.4,0.1-4.9c-1-1.4-2.4-2.5-4-3.2
	c-5.9-2.9-12.5-3.5-18.9-3.6c-2.4,0-4.8-0.6-6.4,1.3c-0.9,1-0.7,2.1-2,2.9C931.5,760.4,930.2,760.8,928.8,760.8z"/>
<path class="st3" d="M964.5,750.4c-1.6,0-3.1,0.5-4.4,1.4c-0.9,0.9-1.6,2.1-1.8,3.3c-0.7,2.5-0.3,5.3,1.2,7.4c0.9,1.1,2.1,2,3.4,2.5
	c4.6,2,9.9,0.5,14.7-0.9l18.9-5.7c1.2-0.2,2.2-0.8,3.1-1.6c1.1-1.4,1.1-3.4,0.1-4.8c-1-1.4-2.4-2.5-4-3.2c-5.9-2.9-12.5-3.5-19-3.6
	c-2.4,0-4.8-0.6-6.4,1.3c-0.9,1-0.7,2.1-2,2.9C967.1,750.1,965.8,750.4,964.5,750.4z"/>
<path class="st11" d="M948.1,545.5c11.1-1.1,22.3-1.4,33.5-0.9c0.7,0,1.5,0.1,2.2,0.3c2.5,1,2.8,4.2,3.1,6.8c1,10.7,5.7,20.6,8,31.1
	c1.4,6.6,2,13.3,1.9,20c-0.1,3-0.1,6,0.2,9c0.3,2.7,1,5.3,1.4,8c0.4,3.6,0.6,7.2,0.5,10.8c0.1,5.6-0.2,11.3-0.9,16.9
	c-1.5,9.5,1.2,19,1.9,28.6c0.4,6.7,1.1,13.5,2.3,20.1c0.6,2.8,1.2,5.6,1.6,8.4c1.1,8.4-0.5,17.1,1.2,25.4c0.8,3.9,2.3,8.2,0.1,11.6
	c-0.7,1-1.7,1.8-2.4,2.9c-0.8,1-1.1,2.3-0.7,3.5c0.4,0.9,1.4,1.5,1.7,2.5c0.4,1.5-1.2,2.8-2.7,3.4c-10.8,4.9-24.8,1.5-32.2-7.9
	c1.3-0.2,2.8-1.1,2.8-2.4c-0.1-1.3-0.4-2.5-0.8-3.7c-0.6-2.2-0.7-4.4-0.3-6.6c0.3-1.5,0.8-3,1.1-4.5c0.3-1.7,0.5-3.4,0.6-5.1
	c0.5-6.2,1.8-12.3,3.6-18.2c1.8-5.8-0.7-11.6-1.3-17.6c-0.3-2.8-0.2-5.8-1.2-8.5c-0.6-1.6-1.6-3-2.2-4.6c-1.4-3.7-0.5-7.8,0.3-11.6
	c-5.9-10.7-7.9-23.4-10.1-35.4l-3.8-20.2c-0.6-3-1.2-6.1-3-8.5c-1.9,8.9-2.7,18.1-2.3,27.2c0.2,2.6,0.2,5.3-0.1,7.9
	c-0.5,2.9-1.7,5.6-2.4,8.5c-1.5,6.3-0.6,12.8-1,19.3c-0.1,2.6-0.5,5.2-0.6,7.8c-0.5,11.5,3.4,22.7,7.2,33.6c2.3,6.7,2.9,14.2,4,21.2
	c1,6.7,2.1,13.4,2.6,20.1c0.5,6.2,0.7,12.9,4.6,17.8c-3.5,2.3-7.2,4.6-11.3,5.4c-4.8,0.8-9.7-0.2-13.9-2.7c-4.2-2.5-7.9-5.6-11-9.3
	c0.8-0.3,1.1-1.5,1.2-2.3c1.2-12.7-3.6-25-5.4-37.6c-0.9-6.3-1.1-12.7-0.5-19.1c0.2-2.4,0.6-4.8,0.7-7.2c0.5-12.5-5.5-24.6-5.3-37.1
	c0.1-5.9-3-11.7-4.5-17.3c-1.3-5-1.3-10.3-1.4-15.5l-0.2-41c0-5.5,0-11.2,1.8-16.5c2.2-6.3-0.3-13.5-0.7-20.2
	C926.3,545.2,937.2,546.5,948.1,545.5z"/>
<path class="st12" d="M912.4,427.7c-4.2-8.6-9.3-16.7-15.3-24.2c-1.2-1.5-2.4-3-3.4-4.6c-2.2-3.7-2.8-8.1-4.2-12.2
	c-3.8-11.4-13.3-20.6-15.6-32.5c-0.8-4.3-3.6-8-5.5-12c-1.3-2.7-2.7-5.5-5.2-7c-3.3-2-7.8-1.1-10.5,1.6c-2.7,2.8-3.8,6.7-3.2,10.5
	c0.2,1.7,0.9,3.4,2,4.7c1.5,1.6,3.6,2.4,5.6,3.4c5,2.6,8.9,7,10.8,12.3c3.3,9.6,3.8,19.9,8,29.2s9.2,18.3,12.9,27.8
	c2.1,5.4,3.7,11,6.8,16s7.8,9.2,13.6,9.9c0-3.6,0.5-7.2,1.6-10.7C912,436.1,914.3,431.5,912.4,427.7z"/>
<path class="st12" d="M974.4,435.2c-0.3-7.1,0.8-14.1,3.2-20.8c0.9-2.5,2-5.1,1.9-7.9c-0.1-2.5-1.3-4.8-2.4-7.1
	c-3.8-7.9-6.4-16.2-9-24.5l-5-15.6c-1.6-1.2-3.1-2.6-4.4-4.1c-2.7-3.1-4.4-6.8-5.1-10.9c-0.6-4,0.4-8.2,2.8-11.5
	c1.1-1.6,2.8-2.6,4.7-2.9c1.7,0,3.3,0.8,4.4,2c1.6,1.9,2.9,4.1,3.8,6.4c1.6,3.8,3.3,7.8,3.1,12c-0.1,3.5-1.4,7.3,0.6,10.1
	c6.6,9.2,11.7,19.8,16.9,29.9c1.3,2.4,2.5,4.9,3.4,7.5c1.3,4.2,1.9,8.6,1.8,12.9c0,8.2-1.1,16.4-2.2,24.5c-0.7,5.1-1.6,10.6-5.5,14
	C983.5,444.2,979.5,439.2,974.4,435.2z"/>
<circle class="st12" cx="948.9" cy="418.4" r="20.8"/>
<path class="st12" d="M959,440.2c0.5,3.8,2.5,7.1,4.5,10.4c1.2,2,2.7,4.1,5,4.4c-6,3.2-12.3,5.7-18.8,7.6c-2.2,0.7-4.5,1.1-6.9,1.1
	c-2-0.1-3.9-0.6-5.7-1.5c-8-3.5-14-10.5-16.2-18.9c2.6,0.1,5.2-0.1,7.7-0.6c1.5-0.1,2.8-0.8,3.8-1.9c0.6-1,0.9-2.2,0.8-3.3
	c0.1-3.5,0.1-6.9,0-10.4c5.1-0.3,10.2,0.3,15.1,1.9c2,0.6,4,1.4,6,1.9c1.3,0.3,4.7,0,5.7,0.7C961.3,432.6,958.6,437.7,959,440.2z"/>
<path class="st13" d="M949.8,452.8c0.5-5.6,4.5-10.3,9.9-11.6c2.1-0.5,4.5-0.4,6.4-1.5c3.3-1.8,4.3-6.3,7.4-8.3s7.6-0.9,10.4,1.7
	s4.1,6.3,5.2,9.9c1.7,4.9,2.6,10,2.7,15.2c0,0.9-0.1,1.9-0.4,2.8c-0.6,1-1.3,2-2.2,2.8c-2.4,2.7-3.5,6.2-3,9.8
	c0.3,3.3,0,6.6-0.9,9.8c-2,8.8-4,17.6-5.6,26.5c-0.4,1.6-0.5,3.3-0.4,5c0.3,2.4,1.6,4.7,1.3,7.1c-0.3,1.1-0.5,2.3-0.6,3.4
	c0.1,0.9,0.3,1.7,0.6,2.5c2.3,6.6,8.4,21.7,8.3,28.7c-10.7-2.7-26.3-3.3-37.3-3.4c-3,0-6,0.1-9.1,0.4c-7.2,0.8-14.6,2.9-21.6,0.9
	c-6.5-1.8-12.3-7-19-6.3c-1.5-3.8,0.3-16.6,1.6-20.4c5.3-15.2,6.4-31.6,3-47.3c-1.2-5.7,0.5-11.7-0.9-17.3c-0.3-1.3-0.8-2.6-1.5-3.7
	c-0.8-1.1-2-1.8-3.4-1.8c-0.1-9,0.7-18.1,2.5-26.9c0.7-3.1,2-6.9,5.2-7.4c2.9-0.5,5.3,1.9,7.6,3.7c2.4,1.8,5.1,3.1,8,3.8
	c1.2,0.1,2.3,0.6,3.3,1.2c1.4,1.1,1.6,3.2,2.7,4.6c2,2.5,6.5,2.3,7.9,5.1c0.3,0.9,0.6,1.7,0.8,2.6c0.7,1.7,1.8,3.2,3.3,4.3
	C944.2,450.5,946.9,452,949.8,452.8z"/>
<path class="st14" d="M932.1,396.3c-0.4-1.4-0.3-3,0.8-3.9c0.5-0.4,1.3-0.6,1.9-1c0.8-0.7,1.5-1.6,2-2.5c3.1-4.3,8.8-5.8,13.6-3.5
	c3.6,1.9,5.8,5.7,9,8.2c1.6,1.3,3.5,2.3,5.2,3.6c3.3,2.8,5.6,6.6,6.7,10.8c1.1,4.2,1.7,8.5,1.8,12.8c0.2,1.3,0.1,2.6-0.2,3.9
	c-0.3,1.1-0.8,2.1-1.5,3c-3.3,5-7.7,9.5-13.1,12.1s-12.1,3-17.5,0.3c-0.5-0.2-1-0.6-1.3-1.1c-0.3-0.7-0.4-1.5-0.2-2.3
	c0.3-3.1-0.3-6.1-1.7-8.9c-1-2-2.5-3.7-3.3-5.8c-0.7-2.3-1.1-4.7-0.9-7.2C933.2,408.6,933.6,402.4,932.1,396.3z"/>
</svg>
