<?xml version="1.0" encoding="utf-8"?>
<!-- Generator: Adobe Illustrator 20.1.0, SVG Export Plug-In . SVG Version: 6.00 Build 0)  -->
<svg version="1.1" id="_x32_71e5882-3c8d-41ed-8a0a-1cb2b4d0cbc1"
	 xmlns="http://www.w3.org/2000/svg" xmlns:xlink="http://www.w3.org/1999/xlink" x="0px" y="0px" viewBox="0 0 1137.7 859.7"
	 style="enable-background:new 0 0 1137.7 859.7;" xml:space="preserve">
<style type="text/css">
	.st0{opacity:0.1;fill:#F9A826;enable-background:new    ;}
	.st1{fill:url(#SVGID_1_);}
	.st2{fill:#D38884;}
	.st3{fill:#444053;}
	.st4{fill:#B07473;}
	.st5{opacity:0.1;enable-background:new    ;}
	.st6{fill:#F9A826;}
	.st7{fill:#67647E;}
	.st8{fill:#585268;}
	.st9{fill:#E1E7EF;}
	.st10{fill:url(#SVGID_2_);}
	.st11{fill:#A27772;}
	.st12{fill:#CC818C;}
	.st13{opacity:0.1;}
	.st14{fill:#F6F8FB;}
	.st15{fill:url(#SVGID_3_);}
	.st16{fill:#65617D;}
	.st17{fill:#FBBEBE;}
	.st18{opacity:5.000000e-02;enable-background:new    ;}
	.st19{fill:#7C5C5C;}
	.st20{fill:#A8A8A8;}
	.st21{opacity:0.2;enable-background:new    ;}
</style>
<title>team spirit</title>
<path class="st0" d="M140,415.9c69.6,72.7,165.3,124.3,274.3,143c210.7,36.2,492.9,67.7,618.1,6.6c60.2-29.4,98.3-90,116.3-160.2
	L140,415.9z"/>
<path class="st0" d="M1056.3,76.2H940.7c-5.5,0-10-4.1-10-9.1s4.5-9.1,10-9.1h20c-5.5,0-10-4.1-10-9.1s4.5-9.1,10-9.1h-14.3
	c-5.5,0-10-4.1-10-9.1s4.5-9.1,10-9.1h60.3c-13.4-5.7-29-9.7-47.1-11.8c-164.5-19.3-223.2-6.5-244,6.6c-25.8,16.5-54.5,28-84.5,33.8
	c-101.5,19.1-291.3,42.1-463.4-7.4c-85.4-24.6-148.9,17-187,86.3h1095.7c-1.4-20.2-5.7-38.8-13.6-55.1
	C1061,75.4,1058.7,76.2,1056.3,76.2z"/>
<path class="st0" d="M24.8,291.4c18.8,35.8,42.5,68.8,70.5,98l1014.9-33.8c7.4-40.4,8.9-81.6,4.5-122.4L24.8,291.4z M703.3,311.4
	c0-5,4.5-9.1,10-9.1h14.2c-5.5,0-10-4.1-10-9.1s4.5-9.1,10-9.1h115.6c5.5,0,10,4.1,10,9.1s-4.5,9.1-10,9.1h-14.3
	c5.5,0,10,4.1,10,9.1s-4.5,9.1-10,9.1h20c5.5,0,10,4.1,10,9.1s-4.5,9.1-10,9.1H733.3c-5.5,0-10-4.1-10-9.1s4.5-9.1,10-9.1h-20
	C707.8,320.5,703.3,316.4,703.3,311.4z"/>
<path class="st0" d="M-13.2,194.6c3.5,22.6,8.8,44.8,16.1,66.5H1118c-4.1-37-13-72.7-26.5-104.3l-1108-24.6
	C-17.8,151.8-16.5,172.8-13.2,194.6z M883.1,203.6c0-5,4.5-9.1,10-9.1h14.3c-5.5,0-10-4.1-10-9.1s4.5-9.1,10-9.1H1023
	c5.5,0,10,4.1,10,9.1s-4.5,9.1-10,9.1h-14.3c5.5,0,10,4.1,10,9.1s-4.5,9.1-10,9.1h20c5.5,0,10,4.1,10,9.1s-4.5,9.1-10,9.1H913.1
	c-5.5,0-10-4.1-10-9.1s4.5-9.1,10-9.1h-20C887.6,212.7,883.1,208.6,883.1,203.6z"/>
<ellipse class="st0" cx="748.5" cy="748.8" rx="75.2" ry="16.9"/>
<ellipse class="st0" cx="352.7" cy="800.9" rx="135.7" ry="11.1"/>
<ellipse class="st0" cx="585.3" cy="701" rx="102.1" ry="16.9"/>
<linearGradient id="SVGID_1_" gradientUnits="userSpaceOnUse" x1="596.9792" y1="1067.3401" x2="596.9792" y2="476.0907" gradientTransform="matrix(1 0 0 1 -31.16 -358.14)">
	<stop  offset="0" style="stop-color:#808080;stop-opacity:0.25"/>
	<stop  offset="0.54" style="stop-color:#808080;stop-opacity:0.12"/>
	<stop  offset="1" style="stop-color:#808080;stop-opacity:0.1"/>
</linearGradient>
<path class="st1" d="M661.6,299.2c-2.2-14.5-15.4-48.5-15.4-48.5l0,0c-0.2-1-0.5-2-0.8-3c-9.4-32.2-22.3-35-22.3-35l-46.5-10
	c0.4,0.2,0.7,0.6,1,0.9c-0.2,0-0.5,0.1-0.7,0.1c-2.1-2.5-3.5-5.6-4.1-8.8c-0.1-0.5-0.2-1-0.2-1.5c12.9-12.6,13.2-33.3,0.6-46.2
	c-1-1-2.1-2-3.3-2.9c-0.5-0.4-1-0.8-1.5-1.1c2.2-2.3,2.3-5.6,0.6-8.8c-3.7-7.6-11.6-12.4-19.8-14.8c-6.2-1.8-13-2.4-19.2-0.4
	c-3.5,1.1-6.8,3-10.1,4.7c-6.2,3.1-13,5.5-17.6,10.6c-1.1,1.2-2.1,2.7-1.8,4.2c0.2,1.2,1.2,2.1,1.8,3.1c1.3,2.3,1,5.2,0.1,7.7
	s-2.2,4.9-2.9,7.4s-0.4,5.6,1.5,7.5c0.9,0.7,1.9,1.4,2.9,2c1.1,0.9,2,2,2.8,3.1c1.8,2.5,3.7,4.9,5.5,7.4c2.6,3.3,4.9,6.8,6.9,10.5
	c1.4,2.7,2.4,5.6,4.3,8c0.5,0.7,1.2,1.4,1.8,1.9l-0.5-0.2c1.6,1.6,3.8,2.5,6.1,2.5l0,0c0.1,0,0.2,0,0.3,0c0.4,0,0.8-0.2,1.1-0.5
	c0,0.3,0,0.7,0,1c0.1,3.6,0.1,7.4-0.2,10.9l-0.4-0.2c-1.3-0.6-2.9-0.5-4,0.4l-42.8,34.3c0,0-9.3,12.7-8,34.7l-7.5,32.9
	c0,0-9.4,27.9-2.2,47.9s11.4,31.4,11.4,31.4s2.9,22.7,7.2,24.5s6.2,2.9,6.2,2.9l0.9,5.4l0,0c0,0,0.3,0.5,0.8,1.4
	c3.1,5.5,14.8,24.8,21.6,22.8c0.9,5.3,1.2,10.6,1.1,15.9l6.7,45c0,0,4.7,12.3,4.4,18.7s5.5,15.6,5.5,15.6c-3.5,6.4-4.5,13.8-2.9,21
	c2.7,12,6.2,67.3,6.2,67.3l5,13.4l-0.1,15.7c-0.4,2.6-1.5,5-3.1,7c-3.2,3.5-3,7.6-10.8,12.4s-12.8,6.6-12.8,13
	c0,0.9-0.1,1.8-0.2,2.7c-0.7,4.7-2.1,7.2,12.2,8.6c16.9,1.6,28.1-9.4,28.1-9.4s2.5-4.5,14.2-6.3c0,0,4-0.2,4.2-3.7
	c0.1-1.2,0.1-3.5,0-6.1c-0.2-4.9-0.7-10.6-1.3-10.9c-0.8-0.3-2.1-5.3-2.6-7h3.2c0,0,3-22.7,0-37.3s-0.3-25.1-0.3-25.1l-0.6-38.8
	c0,0-4-4.3-0.9-11.8s0-44.9,0-44.9s1.2-13.4,4.5-16.5s0.2-19.6,0-20.5L581,487c0,0,2.6,39.3,8.1,46.5l1.6,17.8
	c0,0,11.2,16.4,9.1,25.2s2.3,40.8,2.3,40.8V650c0,0-5,13.1,2,17.8l3-0.1c-1,0.9-1.8,2.3-2.9,3.5c-1.3,1.4-2.1,6.7-2.5,11.2
	c-0.4,3.8-0.5,7.2-0.5,7.2s3,4.8,8.7,5.1s24.3,14.5,24.3,14.5s18.4,0,23.2-1l0.3-0.1c1.5-0.5,2.8-1.5,3.6-2.9c1-1.6,1.3-3.5,0.9-5.4
	c-0.6-2.8-2.8-5.9-7.8-8.5c-12.3-6.5-14.1-12.5-14.1-12.5l-8.1-12.1h1.2c0,0-0.7-12.8,8.1-27.2l-0.6-63.4c0,0,3.6-21.8-2.6-33.7
	c0,0-0.5-12.5,3.6-16.4s-5.5-42.8-5.5-42.8s-2-20.9-4.3-40l0,0c9.7,9.2,19.8-24,21.5-29.9h0.2l-0.1-0.4c0.1-0.3,0.1-0.4,0.1-0.4l0,0
	c0,0-2.2-7.7-0.6-6.1s5.5-4.3,5.5-4.3s-0.6-31.8,6.2-47.8S661.6,299.2,661.6,299.2z M632.6,319.4L632.6,319.4
	c1,19.3-0.1,60.7-0.1,60.7s-1.3,5.3-2.8,11.6l-1-39.4l0,0l-1-37.1L632.6,319.4z M508.5,306c0,0,4.9,61.3,0,70.1
	c-1.4,2.5-2.6,7-3.5,12.1c-1.6-4.2-5-14.2-3.8-19.5c1.6-6.8-3.2-24.8-3.2-25.2s-0.4-10,3-17.3s1.2-10.5,1.2-10.5
	S505,303.7,508.5,306z"/>
<path class="st2" d="M520.4,444.1c-4.3,18.8-21.2-9.6-25.1-16.4c-0.5-0.9-0.8-1.4-0.8-1.4l1.8-8.6l9.7-4c1.5,0.8,3,1.8,4.4,2.8
	C515.8,420.7,523.7,429.5,520.4,444.1z"/>
<path class="st2" d="M652.2,413.4c0,0,0,0.1-0.1,0.4c0,0.1-0.1,0.3-0.1,0.5c-1.7,5.9-11.6,38.9-21.1,29.7
	c-10.5-10-5.4-33.1-5.4-33.1h0.1l22-2.2l4.4,4.5l0,0L652.2,413.4z"/>
<path class="st3" d="M639.4,575.7l0.6,63c-8.6,14.3-7.9,27-7.9,27l-28.4,1.1c-6.9-4.7-2-17.7-2-17.7v-32.4c0,0-4.4-31.7-2.3-40.5
	s-8.9-25-8.9-25l-1.6-17.7c-5.4-7.1-7.9-46.1-7.9-46.1l-5.8-19.7c0.2,0.9,3.2,17.3,0,20.3s-4.4,16.4-4.4,16.4s3.1,37.1,0,44.6
	s0.8,11.8,0.8,11.8l0.6,38.5c0,0-2.7,10.3,0.3,24.9s0,37.1,0,37.1H542l0.1-15.7l-4.9-13.3c0,0-3.4-54.9-6.1-66.8
	c-1.6-7-0.6-14.4,2.8-20.8c0,0-5.6-9-5.4-15.4c0.3-6.4-4.4-18.5-4.4-18.5l-6.6-44.7c0.2-8.6-0.9-17.2-3.3-25.5
	c-3.8-12.7-9.5-29.4-9.5-29.4l6.4,0.6l32.2,2.9c0,0,78.4-5.3,81.9-0.9c0.7,1.4,1.2,3,1.5,4.6c3.5,15.8,8.2,65.3,8.2,65.3
	s9.5,38.6,5.4,42.5s-3.6,16.3-3.6,16.3C643,554,639.4,575.7,639.4,575.7z"/>
<path class="st4" d="M573.2,685.2c-0.2,3.5-4.1,3.7-4.1,3.7c-11.5,1.8-13.9,6.3-13.9,6.3s-11,10.9-27.6,9.3
	c-14.1-1.4-12.7-3.9-12-8.5c0.1-0.9,0.2-1.7,0.2-2.6c0-6.4,4.9-8.2,12.5-13s7.4-8.8,10.6-12.3s3.5-10.3,3.5-10.3
	c3.6-6.3,12.7,1,12.7,1c0.4,2.2,14,1.9,14,1.9s1.8,7.2,2.7,7.6c0.6,0.3,1.1,5.9,1.2,10.8C573.2,681.6,573.2,683.9,573.2,685.2z"/>
<path class="st5" d="M573.2,685.2c-0.2,3.5-4.1,3.7-4.1,3.7c-11.5,1.8-13.9,6.3-13.9,6.3s-11,10.9-27.6,9.3
	c-14.1-1.4-12.7-3.9-12-8.5c6.3,1.6,18.3,3.7,25.4-0.1c9.8-5.3,16.8-9,16.8-9l15.4-7.8C573.2,681.6,573.2,683.9,573.2,685.2z"/>
<path class="st4" d="M659.5,704c-0.8,1.4-2,2.4-3.5,2.9l-0.3,0.1c-4.7,1-22.7,1-22.7,1s-18.2-14.1-23.8-14.4s-8.5-5.1-8.5-5.1
	s0.1-3.3,0.5-7.1c0.4-4.5,1.2-9.8,2.5-11.2c2.4-2.5,3-6,8.5-3.8c0,0,7.8-13.8,17.1-3.1l9.6,14.5c0,0,1.8,6,13.9,12.5
	c4.8,2.6,7,5.7,7.6,8.5C660.8,700.6,660.5,702.4,659.5,704z"/>
<path class="st5" d="M659.5,704c-1.1,0.9-2.3,1.9-3.5,2.9l-0.3,0.1c-4.7,1-22.7,1-22.7,1s-18.2-14.1-23.8-14.4s-8.5-5.1-8.5-5.1
	s0.1-3.3,0.5-7.1c5.6,1.7,14.1,4.7,16.4,7.8c3.5,4.9,14.1,11.7,14.1,11.7s19.8-1.9,28.6-2.2C660.8,700.6,660.5,702.4,659.5,704z"/>
<path class="st2" d="M582.4,210.3l-26.1,27.6c0,0-31.6-2.3-26.1-11.7c2.8-4.8,3.2-14.7,3-23.4c-0.2-8.4-1.1-15.5-1.1-15.5
	s44.4-22.1,41-1.5c-0.7,3.9-0.8,7.9-0.1,11.8C574.9,208,582.4,210.3,582.4,210.3z"/>
<path class="st5" d="M573.1,185.8c-0.7,3.9-0.8,7.9-0.1,11.8c-6.1,6.2-14.5,9.7-23.2,9.7c-6,0-12.5-4.9-17.3-7.8
	c-0.2-8.4-0.3-12.2-0.3-12.2S576.5,165.3,573.1,185.8z"/>
<path class="st2" d="M582.4,172.9c0,18.1-14.6,32.7-32.7,32.7c-18.1,0-32.7-14.6-32.7-32.7s14.6-32.7,32.7-32.7
	c7.4,0,14.6,2.5,20.4,7.1C577.9,153.6,582.4,163,582.4,172.9z"/>
<path class="st5" d="M626.9,418.2c-8.1,19.4-60.5,19.8-60.5,19.8v-21.1l-3.2-0.2c1.4,6-1.9,20.8-1.9,20.8
	c-41.4,5.8-51.5-17.7-51.5-17.7l1.4-8.1l32.2,2.9c0,0,78.4-5.3,81.9-0.9C626.1,415.1,626.6,416.6,626.9,418.2z"/>
<path class="st6" d="M566.4,435.4v-21.1l-3.2-0.2c1.4,6-1.9,20.8-1.9,20.8c-31.1,4.4-44.6-7.9-49.3-14.2c-0.9-1.1-1.6-2.3-2.2-3.5
	l12.6-71.1l3-104.6l4.5-18.4l1-8.8v-0.1h0.1l3.2,1.4l19.3,8.3l21.9-16.5l0.3-0.2l1.1-0.8l1.8,1.4l4.5,3.6l14.4,93.2
	c0,0,25,71.8,29.7,100.7c0.2,1.2,0.3,2.2,0.5,3.2C630.9,435,566.4,435.4,566.4,435.4z"/>
<circle class="st7" cx="556" cy="226" r="1.9"/>
<circle class="st7" cx="556.8" cy="242.9" r="1.9"/>
<circle class="st7" cx="558.7" cy="270.4" r="1.9"/>
<circle class="st7" cx="561.8" cy="300" r="1.9"/>
<circle class="st7" cx="563.6" cy="327.8" r="1.9"/>
<circle class="st7" cx="565.5" cy="357.4" r="1.9"/>
<circle class="st7" cx="564.7" cy="386.7" r="1.9"/>
<path class="st5" d="M532.3,356.4c0,0-2.1,27.2-5.9,35.1s-5.5,30.1-5.5,30.1l-8.9-1c-0.9-1.1-1.6-2.3-2.2-3.5l12.6-71.1l3-104.6
	l4.5-18.4l1-8.8l0.1-0.1c1-0.5,2.2-0.5,3.2,0.1l0.4,0.2c-0.1,0.4-0.2,0.7-0.4,1.1c-3.5,10.8-4.8,30.8-4.8,30.8s5,36.5,5.5,53.5
	C535.7,316.9,532.3,356.4,532.3,356.4z"/>
<path class="st5" d="M510.5,416.5c-0.1,0.2-0.2,0.4-0.3,0.7c-3.4,5.8-12.2,9.5-14.8,10.5c-0.5-0.9-0.8-1.4-0.8-1.4l1.8-8.6l9.7-4
	C507.6,414.4,509.1,415.4,510.5,416.5z"/>
<path class="st7" d="M486.9,277.5l-8.1,4.8l-7.4,32.7c0,0-9.2,27.7-2.1,47.5s11.2,31.1,11.2,31.1s2.8,22.5,7.1,24.3s6.1,2.8,6.1,2.8
	l0.9,5.4c0,0,11.5-3.9,15.6-10.8c4.1-6.9-3-24-3-24s-6.1-14.6-4.5-21.4s-3.1-24.6-3.1-25s-0.4-9.9,3-17.2s1.1-10.4,1.1-10.4
	l-2.1-20.8L486.9,277.5z"/>
<path class="st5" d="M627.5,412.1c0,0-21.4,8.1-28.2,1s-6.1-40.2-6.1-40.2s-6.5-61.1-10.6-71.2s-2-82.5-2-82.5s-2.8-9.4-5.2-11.8
	c-0.2-0.2-0.3-0.3-0.5-0.4l0.8,0.2l2.9,0.6l4.5,3.6l14.4,93.2c0,0,25,71.8,29.7,100.7L627.5,412.1z"/>
<path class="st5" d="M652.2,414.2H652c-2.7,0.4-26.4,3.2-26.5-1.7c0-0.6,0-1.1,0.1-1.7l22-2.2l4.4,4.5l0,0c0.1,0.3,0.1,0.5,0.2,0.7
	V414.2z"/>
<path class="st7" d="M629.4,244.8l15.6,8.1c0,0,13,33.7,15.1,48.1c0,0,9.6,38.7,3,54.6S657,403,657,403s-3.8,5.8-5.4,4.2
	s0.6,6.1,0.6,6.1s-26.7,3.5-26.8-1.7s6.1-30.3,6.1-30.3s1.7-59.6-0.7-68.9S629.4,244.8,629.4,244.8z"/>
<path class="st5" d="M582.8,308.2c0,0-8.8,21.5-11.6,22.9s0.6,7.1,0.6,7.1S587.8,315.9,582.8,308.2z"/>
<path class="st5" d="M577.6,232.8c0.1-0.4-10.5,10.4-13.3,12S574.6,244.7,577.6,232.8z"/>
<path class="st5" d="M548.2,306.5c0,0-16.1,10.4-14,14.6S548.2,306.5,548.2,306.5z"/>
<path class="st5" d="M577.5,458.8c0,0,13.7,8.8,35.1,11L577.5,458.8z"/>
<path class="st5" d="M544.5,480c0,0,12.7,16,18.5,16.4S544.5,480,544.5,480z"/>
<path class="st5" d="M562.3,542.7c-0.6,0.3-7.2,14.4-14,14.9C541.5,558,562.3,542.7,562.3,542.7z"/>
<path class="st5" d="M621.3,573.7c0,0,12.6-2.8,15.4,6.2C636.7,579.9,635.9,577.1,621.3,573.7z"/>
<path class="st5" d="M612.8,625.5c0,0,15.3-3.1,18.5,1.1S612.8,625.5,612.8,625.5z"/>
<path class="st5" d="M569.6,632.7c0,0.1-15.6,3.1-15,5.1s16.6,1.7,17.2-1.4C572.2,634.8,571.2,633.2,569.6,632.7L569.6,632.7z"/>
<path class="st5" d="M607.7,646.1c0,0,25.6-3.1,24,2.3S607.7,646.1,607.7,646.1z"/>
<path class="st5" d="M473.9,331.2c0.1,0.4,16.8,2.7,19.1,8.1c0,0-16.4-7.6-19-7.6"/>
<path class="st5" d="M497.4,374.9c0,0-13.9,4.4-12.9,11S483.1,382.8,497.4,374.9z"/>
<path class="st5" d="M490.9,408.6c0,0,5-6.9,9.9-5.7S490.9,408.6,490.9,408.6z"/>
<path class="st5" d="M570.1,147.4c-0.5,0.5-1,0.9-1.6,1.2c-4,2.3-5.1,5.9-7,10.1c-1.8,3.8-3.7,7.8-7.3,9.9
	c-4.6,2.8-10.7,1.8-15.5,4.2c-4.4,2.3-6.9,6.9-6.4,11.8c0.3,1.8,0.8,3.7,1.4,5.4c1.1,3.8,1.6,7.8,1.5,11.8c0,0.1,0,0.2,0,0.4
	c-16.1-8.1-22.7-27.7-14.6-43.8s27.7-22.7,43.8-14.6C566.4,144.7,568.4,145.9,570.1,147.4L570.1,147.4z"/>
<path class="st8" d="M569.3,137.5c-3.6-7.5-11.4-12.3-19.4-14.6c-6.1-1.8-12.8-2.4-18.9-0.4c-3.5,1.1-6.6,3-9.9,4.6
	c-6.1,3.1-12.7,5.5-17.3,10.5c-1.1,1.2-2,2.7-1.7,4.2c0.2,1.1,1.1,2,1.7,3.1c1.3,2.3,1,5.2,0.1,7.7s-2.2,4.8-2.8,7.4
	s-0.4,5.6,1.5,7.4c0.9,0.8,1.9,1.3,2.9,2c1,0.9,2,1.9,2.7,3.1l5.4,7.4c2.5,3.3,4.8,6.7,6.8,10.4c1.3,2.7,2.4,5.5,4.2,7.9
	s4.6,4.3,7.6,4.1c0.5,0,0.9-0.2,1.2-0.6c0.1-0.2,0.2-0.5,0.1-0.8c0.1-4-0.4-7.9-1.4-11.7c-0.6-1.8-1.1-3.6-1.4-5.4
	c-0.5-4.9,2.1-9.6,6.4-11.8c4.8-2.4,10.9-1.4,15.5-4.2c3.6-2.2,5.5-6.2,7.3-10c1.9-4.1,3-7.7,7-10.1
	C570.8,145.3,571.2,141.5,569.3,137.5z"/>
<path class="st5" d="M554.6,671.8c0,0,5,6.4,3.7,10S554.6,671.8,554.6,671.8z"/>
<path class="st5" d="M622.3,687.7c0,0,1.1-8.5,5.6-8.6s4.7-0.5,8.1,0.8s6.6,3.3,5.6,3.6s-5.8-4.9-10.8-2.2
	C627.6,683.1,624.7,685.2,622.3,687.7z"/>
<path class="st5" d="M539.7,234.6l14-9.8c0,0-20.5-12.1-22.9-10.4s-4.1,17-4.1,17L539.7,234.6z"/>
<path class="st9" d="M539.6,234l14-10c0,0-20.5-12.1-22.9-10.4s-4.1,17.8-4.1,17.8L539.6,234z"/>
<path class="st6" d="M539.6,234l14-10c0,0-20.5-12.1-22.9-10.4s-4.1,17.8-4.1,17.8L539.6,234z"/>
<path class="st7" d="M533,213.7l-0.4-0.2c-1.3-0.7-2.8-0.5-3.9,0.4l-42,34.1c0,0-9.1,12.6-7.9,34.4l24.8,35.1c0,0,2.8-11.9,6.2-9.6
	c0,0,4.8,60.9,0,69.6c-4.8,8.8-6.9,41.6-6.9,41.6l16.3,1.8c0,0,1.7-22.2,5.5-30.1s5.9-35.1,5.9-35.1s3.4-39.6,2.9-56.5
	s-5.5-53.5-5.5-53.5S529.3,224.2,533,213.7z"/>
<path class="st5" d="M574.9,228.4l-17.5-6.5c0,0,22.2-24.3,25-10.8L574.9,228.4z"/>
<path class="st9" d="M574.9,227.6l-17.5-6.5c0,0,22.2-24.3,25-10.8L574.9,227.6z"/>
<path class="st6" d="M574.9,227.6l-17.5-6.5c0,0,22.2-24.3,25-10.8L574.9,227.6z"/>
<path class="st5" d="M574.3,206.8c0.3,0,0.5,0,0.7,0.2L574.3,206.8z"/>
<path class="st7" d="M576,205.2l46.3,10c0,0,12.7,2.8,21.9,34.8s-12.6,71.2-12.6,71.2l-4.8-4.1l2.4,93.4c0,0-21.4,8.1-28.2,1
	s-6.1-40.2-6.1-40.2s-6.5-61.1-10.6-71.2s-2-82.5-2-82.5S578.6,204.6,576,205.2z"/>
<path class="st5" d="M618.3,264.7c-0.7,0.6-1.4,28.9,1.4,50.4c1.7,13.1,4.4,26.1,8,38.8l-4.2-86.2
	C623.6,267.6,620.3,262.8,618.3,264.7z"/>
<path class="st5" d="M612.7,240.3c1.1,0.7,6.1,12.5,3.8,17.3C614.2,262.4,612.7,240.3,612.7,240.3z"/>
<path class="st5" d="M569,137.5c-2.3-4.5-5.8-8.2-10.2-10.7c3.2,2.3,5.9,5.4,7.6,9c2,4,1.4,8-2.5,10.2s-5.1,5.9-7,10.1
	c-1.8,3.8-3.7,7.8-7.3,10c-4.6,2.8-10.7,1.8-15.5,4.2c-4.3,2.3-6.9,7-6.4,11.8c0.3,1.8,0.8,3.6,1.4,5.4c1.1,3.8,1.6,7.8,1.5,11.8
	c0,0.3,0,0.5-0.2,0.8c-0.3,0.4-0.7,0.6-1.2,0.6c-1.2,0.1-2.4-0.1-3.5-0.6c1.6,1.6,3.8,2.4,6,2.4c0.6,0.1,1.2-0.4,1.3-1
	c0-0.1,0-0.2,0-0.3c0.1-4-0.4-7.9-1.5-11.8c-0.6-1.8-1.1-3.6-1.4-5.4c-0.5-4.9,2.1-9.6,6.4-11.8c4.8-2.4,10.9-1.4,15.5-4.2
	c3.6-2.2,5.5-6.2,7.3-10c1.9-4.1,3-7.7,7-10.1S571,141.5,569,137.5z"/>
<linearGradient id="SVGID_2_" gradientUnits="userSpaceOnUse" x1="787.7603" y1="1118.6263" x2="787.7603" y2="508.0291" gradientTransform="matrix(1 0 0 1 -31.16 -358.14)">
	<stop  offset="0" style="stop-color:#808080;stop-opacity:0.25"/>
	<stop  offset="0.54" style="stop-color:#808080;stop-opacity:0.12"/>
	<stop  offset="1" style="stop-color:#808080;stop-opacity:0.1"/>
</linearGradient>
<path class="st10" d="M853.9,263.1c-13.8-0.3-25.9-10-32.8-21.9c-1.8-2.8-2.9-6-3.3-9.4c0-0.8,0.2-1.5,0.4-2.2
	c0.4-1.1,0.8-2.3,1-3.4c0.1-0.5,0.1-0.9,0-1.4c0,0,0,0,0-0.1c0.3-2.5-1.2-5-3-6.7s-4.2-3-6.1-4.7c-5.9-5.2-7.7-13.5-7.8-21.5v-0.4
	c0.1-3.4,0.3-6.8,0.3-10.2c0-1.9,0-3.9-0.2-5.8c-0.6-4.8-2.4-9.7-6.2-12.8c-9.9-8-26.4,0.3-36.7-7.2c-2.5-1.9-4.5-4.6-7.5-5.3
	c-2.3-0.6-4.6,0.2-6.8,0.9c-7.5,2.5-15.9,5.7-18.8,13c-1.7,4.2-1.2,8.9-2.8,13.1c-1,2.8-2.9,5.3-4.3,7.9c-1.1,2-1.7,4.3-1.6,6.6
	c-0.1,1.2,0,2.4,0.5,3.5c0.5,1.4,1.4,2.6,2.5,3.5c-0.4,0.8-0.9,1.6-1.5,2.3c-1.9,2.4-4.9,4-6.9,6.3c-3.7,4.3-3.6,10.1-1.7,15.2
	s5.1,9.6,7.4,14.5c1,2.1,1.8,4.5,0.8,6.6c-0.7,1.5-2.2,2.6-3.3,3.9c-1.7,1.9-2.7,4.2-3,6.7c-22.5,5.1-22.5,23.2-22.5,23.2l0,0
	l-12.2,30.6c0,0-2,5.1-4.2,12l-14.4-2.6l10,16.7c-1.9,6.8-3.2,13.1-2.8,16.3c0,0-4.5,21,3.5,24.7l17.5,7.9c0.8,0.5,1.6,0.8,2.4,1.1
	l0.7,0.3c0.5,0.3,1.1,0.3,1.6,0l0,0h0.2c0.3,0,0.7,0,1-0.1c0.4-0.2,0.7-0.5,0.9-1v-0.1l5.2-1.5l4.5,5.3c2,1.4,4,2.6,5.9,3.7
	l-6.9,68.4c0,0-1.1,91-4.5,111.7c-1.2,7.7-1.2,12.9-0.8,16.5l-0.1,0.2c0.8,5.8,3,7,3,7v-0.1l0.1,0.1c1-2.7,2.2-5.2,3.6-7.7
	c0,0.5,0,1,0,1.5c-0.1,7.7-0.3,18.5-1.1,25.6c-1.4,12,3.5,51.5,3.5,51.5l1.7,36c0.3,6.1-1.1,12.2-4.1,17.5c-4,7.2-9.1,17.3-9.5,21.8
	c0,0.2,0,0.5,0,0.7l0,0l-8.6,10.3c0,0-3.3,5.2,4.2,7.3c4.1,1.1,11.1,0,16.7-1.3c5.1-1.2,8.7-5.7,8.7-10.9c1.4-5,3.8-9.6,7.1-13.6
	l1.4,8.3l9.4,2.3l1.2-22.7c0.5-1.3,0.7-2.6,0.7-4l0,0c1.9-16.2-4.4-14.7-4.4-14.7c0.2,0.1,0.3,0.3,0.3,0.6l-0.3-0.5l0,0
	c-3.8-7.6-2-20-2-20s5-36,6.7-45.5c1.2-6.7,0.7-28.7,0.3-41c0-0.5,0-1,0-1.5c14.6-0.2,32.6-0.7,45.2-1.9v1.5l-2.3,85
	c-0.2,5.4-1.3,10.8-3.3,15.8c0,0.1-0.1,0.2-0.1,0.3c-2.8,7.1-4.3,14.7-4.6,22.3l-1.1,27v0.8l0,0c-1.9,0.7-4.8,2.8-4.9,8.9
	c-0.1,8.9,15.5,5.9,15.5,5.9c15.6,0,15.8-16.3,15.8-16.3s0.5-14.9,1.2-24.9s-2.4-7.8-2.4-7.8l-0.2,28.4c0,0.1,0,0.1,0,0.2v-24.9
	l0.2-3.6V711l0,0v-0.8l2-29.3c0,0,14.4-48.8,16.6-58.2c1.6-6.7,0.9-26.7,0.4-37.8c0-0.5,0-1-0.1-1.5c4.5-0.4,8.4-0.4,10-0.4h0.7
	c0,0-0.7-78.4-2.6-108s-4.8-56.6-12.3-64.8c-4.5-4.9-10.8-20.1-15-31.4c8.9,3.8,18.1,6.9,27.6,9c23.6,4.9,20.4-15.5,20.4-15.5
	l-2.4-38.7h0.2c-0.1-10.1-1-20.3-2.6-30.3c-1.2-7.7-3.2-15.6-6.1-22c2.6-1,5.1-2.1,7.6-3.2c6.4-2.8,13.6-6.8,14.5-13.8h-0.3
	C853.7,264.1,853.8,263.6,853.9,263.1z M707.6,319.1L707.6,319.1c0,4-0.1,10.9-0.3,18.6l-7.5-10l7.5-12.2L707.6,319.1z M811.1,354.5
	l-12.5-4c2.2-3.5,4.8-6.7,7.7-9.5l1.1-1l-0.4,0.1l0.6-0.5l0.4-0.1l-0.6,0.5l0.7-0.1c0.8,3.1,2.2,6.1,4.2,8.5
	C816.8,353.3,811.1,354.5,811.1,354.5L811.1,354.5z"/>
<polygon class="st11" points="735.3,714.5 733.8,742.2 724.5,739.9 722.6,728.4 "/>
<polygon class="st5" points="735.3,714.5 733.8,742.2 724.5,739.9 722.6,728.4 "/>
<path class="st12" d="M769.5,745.9l14.2,2.9l10.5-9.3v-26.2l0.2-3.6v-0.1l0,0v-0.8l2-29.1c0,0,14.2-48.5,16.4-57.8
	c1.6-6.6,0.9-26.5,0.4-37.5c-0.2-4.5-0.4-7.5-0.4-7.5l-31.3-7.6l-0.7,24.1l-2.3,84.4c-0.2,5.4-1.2,10.7-3.2,15.7l-0.1,0.3
	c-2.7,7.1-4.3,14.5-4.5,22.1l-1.1,26.8v0.7L769.5,745.9z"/>
<path class="st5" d="M794.4,708.9v0.7l0,0V708.9L794.4,708.9z"/>
<path class="st5" d="M769.5,745.9l14.2,2.9l10.5-9.3v-2.2c-0.1,1-0.6,1.9-1.5,2.4l-0.2,0.1c-4.9,2.6-10.4,3.7-15.9,3.2l-5.5-0.5
	c-0.5,0-1,0.2-1.5,0.4v0.7L769.5,745.9z"/>
<path class="st4" d="M792.5,740.5l0.2-0.1c0.9-0.5,1.5-1.5,1.5-2.6l0.2-28.2c0,0,3.1-2.2,2.3,7.7s-1.2,24.7-1.2,24.7
	s-0.1,16.2-15.5,16.2c0,0-15.4,2.9-15.3-5.9s6.4-9.2,6.4-9.2l5.5,0.5C782.1,744.2,787.6,743.1,792.5,740.5z"/>
<path class="st12" d="M695.5,739.9c0.4,6.4,19.1,2.7,19.1,2.7l12.6-24.5c0,0,10.5-8.1,5.3-15.2c-0.3-0.4-0.5-0.8-0.8-1.2
	c0,0,0,0,0-0.1l0,0c-0.1-0.2-0.2-0.4-0.3-0.6l0,0c-3.8-7.5-1.9-19.8-1.9-19.8s4.9-35.8,6.6-45.2c1.2-6.7,0.7-28.5,0.3-40.7
	c-0.2-5.1-0.3-8.5-0.3-8.5l-31.1-8.3c0,0,0,3.9,0,9.3c-0.1,7.7-0.3,18.4-1.1,25.4c-1.3,11.9,3.4,51.2,3.4,51.2l1.7,35.8
	c0.3,6.1-1.1,12.1-4,17.4c-3.9,7.1-9,17.2-9.3,21.7C695.5,739.4,695.5,739.6,695.5,739.9z"/>
<path class="st5" d="M695.5,739.9c0.4,6.4,19.1,2.7,19.1,2.7l12.6-24.5c0,0,10.5-8.1,5.3-15.2c-0.3-0.4-0.5-0.8-0.8-1.2
	c-0.2,3.7-4.2,13-4.2,13s-10.4,20.8-13.7,25.6s-17.7-0.9-18.2-1.1C695.5,739.4,695.5,739.7,695.5,739.9z"/>
<path class="st4" d="M731.3,701c0,0,6.2-1.4,4.3,14.6l0,0c0.1,3.7-1.7,7.2-4.9,9.2c-4.4,2.8-11.2,8.7-14.7,20.3l0,0
	c0,5.1-3.5,9.6-8.5,10.8c-5.6,1.3-12.5,2.4-16.5,1.3c-7.5-2.1-4.2-7.2-4.2-7.2l8.6-10.2c0,0,14.9,5.9,18.2,1.1s13.7-25.6,13.7-25.6
	S733.2,702.4,731.3,701z"/>
<path class="st5" d="M781.5,572.2l-0.7,24.1c8.3-0.8,14.3-1.9,15.3-3.5c2.2-3.4,10.2-4.9,17-5.5c-0.2-4.5-0.4-7.5-0.4-7.5
	L781.5,572.2z"/>
<path class="st5" d="M704.9,590.7c0.8-1.6,2-3.1,3.4-4.1c3.3-1.8,2.9,11.8,2.9,11.8s11,0.1,25-0.1c-0.2-5.1-0.3-8.5-0.3-8.5
	l-31.1-8.3C704.9,581.4,705,585.3,704.9,590.7z"/>
<path class="st3" d="M701.4,593.9c0,0,3.7-10,7-11.8s2.9,11.8,2.9,11.8s80.8,0.7,84.9-5.5s27.5-5.9,27.5-5.9s-0.7-77.9-2.6-107.3
	s-4.8-56.2-12.1-64.3c-4.8-5.2-11.5-22.1-15.7-33.4c-2.3-6.2-3.8-10.6-3.8-10.6l-77.1,4.4l-0.6,6.2l-8.2,81.9
	c0,0-1.1,90.4-4.4,110.9S701.4,593.9,701.4,593.9z"/>
<g class="st13">
	<path d="M789.9,588.4c4-6.2,27.5-5.9,27.5-5.9s-0.7-77.9-2.6-107.3s-4.8-56.2-12.1-64.3c-4.8-5.2-11.5-22.1-15.7-33.4
		c-1.9-5.2-3.3-9.2-3.7-10.3l6-0.3c0,0,1.5,4.5,3.8,10.6c4.2,11.3,10.9,28.2,15.7,33.4c7.3,8.1,10.3,34.9,12.1,64.3
		c1.8,29.4,2.6,107.3,2.6,107.3s-23.5-0.4-27.6,5.9c-3.5,5.3-62.9,5.6-80.2,5.5C738,593.9,786.8,593.2,789.9,588.4z"/>
	<path d="M702.1,582.2c1.5-0.8,2.2,1.5,2.6,4.3c-1.3,2.4-2.5,4.9-3.5,7.5c0,0-2.1-1.2-3-7C699.4,584.9,700.8,582.9,702.1,582.2z"/>
</g>
<path class="st8" d="M725.2,178.5c-5.3,7.3,0.1,17.6-5.7,24.7c-1.9,2.3-4.8,4-6.8,6.3c-3.7,4.3-3.5,10.1-1.7,15.1s5,9.6,7.3,14.4
	c1,2.1,1.7,4.5,0.7,6.6c-0.7,1.5-2.2,2.6-3.3,3.8c-3.7,4.1-3.8,9.8-1.8,14.7s5.8,9,9.5,13.1c1.5,1.6,3.3,3.4,5.8,3.3
	c1.3-0.1,2.5-0.5,3.6-1.2c17.6-9,25-30.3,16.8-48.3c-3.1-7.4-8.3-14.6-8.3-22.4c0-6.2,3.2-12.2,3.8-18.4c0.7-7.5-3.8-19.5-12.9-22.8
	C732.9,172.3,727.9,174.7,725.2,178.5z"/>
<path class="st5" d="M725.2,178.5c-5.3,7.3,0.1,17.6-5.7,24.7c-1.9,2.3-4.8,4-6.8,6.3c-3.7,4.3-3.5,10.1-1.7,15.1s5,9.6,7.3,14.4
	c1,2.1,1.7,4.5,0.7,6.6c-0.7,1.5-2.2,2.6-3.3,3.8c-3.7,4.1-3.8,9.8-1.8,14.7s5.8,9,9.5,13.1c1.5,1.6,3.3,3.4,5.8,3.3
	c1.3-0.1,2.5-0.5,3.6-1.2c17.6-9,25-30.3,16.8-48.3c-3.1-7.4-8.3-14.6-8.3-22.4c0-6.2,3.2-12.2,3.8-18.4c0.7-7.5-3.8-19.5-12.9-22.8
	C732.9,172.3,727.9,174.7,725.2,178.5z"/>
<path class="st5" d="M784.4,443.3c-10.7,0.6-20.8,5.2-30.1,10.4s-18.4,11.1-28.5,14.8"/>
<path class="st5" d="M777.8,468.5c-10.6,1-20.4,5.8-27.8,13.5c-2.6,2.8-4.8,5.8-7.5,8.5c-4.1,4-9.3,7-14.9,8.4"/>
<path class="st5" d="M780,487.6c-8.5,2.4-16.2,7-22.3,13.5c-1.6,1.8-3.1,3.7-4.8,5.4c-8.8,9.5-21.3,14.5-33.4,19.3"/>
<path class="st12" d="M779.1,221.8c0.2,8.5,1,17.1,2.2,25.5c1,6,2.4,11.4,4.4,13.8c5.9,7-28.7,16.4-28.7,16.4l-20.4-15.8
	c0,0,16.2-14.9,8.6-29.4S779.1,221.8,779.1,221.8z"/>
<path class="st5" d="M711.8,377.5h81.5c-2.3-6.2-3.8-10.6-3.8-10.6l-77.1,4.4L711.8,377.5z"/>
<path class="st6" d="M706.5,376.1h87.2c-2.5-8.8,0-16.9,3.5-23.1c2.4-4.4,5.5-8.4,9.1-11.8l0.6-0.5l30.4-6.7l1.6-0.4
	c0,0,0.2-55.4-19.3-63s-31.3-17.9-31.3-17.9l-26.9,8.3l-19.8-10c-6.4,6.9-23.3,4.2-23.3,4.2c-27.7,3.2-27.7,24-27.7,24
	s16.2,37.7,17.4,37.7S706.5,376.1,706.5,376.1z"/>
<path class="st5" d="M736.6,340.9c0,0-17.8-3.9-23.8-10.8"/>
<path class="st5" d="M826.3,320.2l-20.6,16.9c0.1,1.3,0.4,2.7,0.7,4l0.6-0.5l30.4-6.7L826.3,320.2z"/>
<path class="st5" d="M770.4,370.2c0,0,4.5,2.5,11.4,5.9h11.8c-2.5-8.8,0-16.9,3.5-23.1l-20.9-6.8
	C783.4,352.8,770.4,370.2,770.4,370.2z"/>
<path class="st6" d="M702.8,272.5l-12.2,6.6l-12,30.4c0,0-12.5,33.3-11.3,42.1c0,0-4.4,20.8,3.4,24.5l20.4,9.2c1,0.4,2.1,0,2.5-1
	c0.2-0.5,0.2-1.1-0.1-1.6c-2.9-5.5-6.1-14.1-1-18.9l-5.9-12.2l21.2-34.8l7.1-12L702.8,272.5z"/>
<path class="st5" d="M730.1,333.9c1.1,4.3,4.6,11,16.5,13.5l13,10.6l13.8,6.3l5.6,2.5l2.4-17.3l-5.4-3l-6.3-3.5
	c0,0-14.3-25.9-36.9-15C730.6,329.2,729.5,331.6,730.1,333.9z"/>
<path class="st12" d="M730.8,332.5c1.1,4.3,4.6,11,16.5,13.5l13,10.6l13.8,6.3l5.6,2.5l2.4-17.3l-5.4-3l-6.3-3.4
	c0,0-14.3-25.9-36.9-15C731.4,327.8,730.3,330.2,730.8,332.5z"/>
<circle class="st5" cx="756.3" cy="212.6" r="31.6"/>
<circle class="st12" cx="756.3" cy="211.9" r="31.6"/>
<path class="st5" d="M775.9,279.4l-9.5-18.5c0,0,13.9-5.6,14.9-12.1s13.3,7.6,10.7,12.3S775.9,279.4,775.9,279.4z"/>
<path class="st6" d="M775.9,277.9l-9.5-18.5c0,0,13.9-5.6,14.9-12.1s13.3,7.6,10.7,12.3S775.9,277.9,775.9,277.9z"/>
<path class="st14" d="M698.1,325.6l52.5,70.6c0,0-19.3,10.5-46-8.3l-11.5-13.7l-32.9-55.4L698.1,325.6z"/>
<path class="st12" d="M687.8,364l4.8-0.1c0,0,29.2-28.3,36.4-14s-18.2,27.7-18.2,27.7l-7.7,4.2l-10,3l-6.4-8.6L687.8,364z"/>
<path class="st5" d="M694.8,379.3c0.4,1.6,0.9,3.4,0.1,4.9c-0.2,0.4-0.5,0.7-0.9,1c-0.3,0.1-0.7,0.2-1,0.1c-2.5-0.2-4.9-1.4-6.6-3.3
	c-1.7-1.9-3.1-3.9-4.3-6.2c-1.3-2.3-2.7-4.8-2.2-7.4c0.5-2.8,3-4.8,5.4-6.3c4.8-3.2,5,0.5,6.1,4.6S693.7,375.1,694.8,379.3z"/>
<path class="st6" d="M694.1,379.3c0.4,1.6,0.9,3.4,0.1,4.9c-0.2,0.4-0.5,0.7-0.9,1c-0.3,0.1-0.7,0.2-1,0.1c-2.5-0.2-4.9-1.4-6.6-3.3
	c-1.7-1.9-3.1-3.9-4.3-6.2c-1.3-2.3-2.7-4.8-2.2-7.4c0.5-2.8,3-4.8,5.4-6.3c4.8-3.2,5,0.5,6.1,4.6S693,375.1,694.1,379.3z"/>
<polygon class="st5" points="708,316.8 710.4,312.7 708.3,320.3 "/>
<path class="st5" d="M774.2,362.9l5.6,2.5l2.4-17.3l-5.4-3C780.5,349.5,777.2,357.4,774.2,362.9z"/>
<path class="st5" d="M796.8,342.8c0,0-18.2,1.1-25.9-3.9"/>
<g class="st13">
	<path d="M794.5,354.4c2.4-4.4,5.5-8.4,9.1-11.9c0.9-0.5,1.8-1,2.7-1.5l28.3-5.8l1.6-0.4c0,0,0.2-55.4-19.3-63
		c-11-4.2-21.3-10-30.6-17.2l2.2-0.7c0,0,11.8,10.3,31.3,17.9s19.3,63,19.3,63h-2.9l-29,5.5c0,0-1.2,1.2-1.6,1.6
		c-3.6,3.6-6.8,7.8-9.3,12.3c-3.8,7.1-4.7,15.5-2.4,23.2h-3C788.6,368.8,791.1,360.7,794.5,354.4z"/>
	<path d="M717.1,256.7c0.5-0.1,0.9-0.1,1.4-0.2c2,0.3,4,0.4,6,0.5C722.1,257.1,719.6,257,717.1,256.7z"/>
	<path d="M758.7,262.4l-17.9-9.1c0.4-0.3,0.7-0.6,1-1l18.7,9.5L758.7,262.4z"/>
</g>
<path class="st6" d="M827,318.7l12,14.7l2.5,39.9c0,0,3.2,20.3-20.1,15.4s-50.2-20-50.2-20s13-17.4,5.9-24l33.3,10.8
	c0,0,5.6-1.2,1.2-6.1s-5.2-13.7-5.2-13.7L827,318.7z"/>
<path class="st5" d="M832.4,360.9l6.6,7.6C835.5,367.4,833,364.5,832.4,360.9z"/>
<polygon class="st5" points="821.1,359.7 831.4,372.9 826.3,374.1 "/>
<path class="st5" d="M718.6,197.4c-1.1-2.8-0.3-6,1.1-8.6s3.2-5.1,4.2-7.9c1.5-4.2,1-8.9,2.7-13c2.9-7.2,11.2-10.5,18.6-13
	c2.2-0.7,4.5-1.5,6.8-0.9c3,0.7,5,3.4,7.4,5.3c10.1,7.5,26.4-0.8,36.2,7.2c3.7,3,5.5,7.9,6.1,12.7s0,9.6-0.1,14.4
	c-0.2,8.4,1.4,17.6,7.7,23.2c1.9,1.7,4.1,2.9,6,4.7s3.3,4.2,3,6.7c-0.2,1.2-0.6,2.3-1,3.4c-1.2,4.4,0.6,9,2.9,13
	c6.8,11.8,18.8,21.5,32.4,21.7c-0.9,6.9-8,10.8-14.3,13.6c-8,3.6-16.5,7.1-25.3,6.7s-18-6.1-19.5-14.8c-0.5-3-0.5-6.6-3-8.2
	c-1.6-1-3.6-0.7-5.3-1.4c-2.4-1-3.6-3.7-4.4-6.2c-1.6-5.2-2.5-10.6-2.6-16c-0.1-6.4,0.7-13.5-2.9-18.8c-3.4-4.9-9.4-7.4-13.3-11.9
	c-3.6-4.2-7.5-9.2-13.4-10C740.3,198.1,723.4,209.2,718.6,197.4z"/>
<path class="st8" d="M718.6,195.9c-1.1-2.8-0.3-6,1.1-8.6s3.2-5.1,4.2-7.9c1.5-4.2,1-8.9,2.7-13c2.9-7.3,11.2-10.5,18.6-13
	c2.2-0.7,4.5-1.5,6.8-0.9c3,0.7,5,3.4,7.4,5.3c10.1,7.5,26.4-0.8,36.2,7.2c3.7,3,5.5,7.9,6.1,12.7s0,9.6-0.1,14.4
	c-0.2,8.4,1.4,17.6,7.7,23.2c1.9,1.7,4.1,2.9,6,4.7s3.3,4.2,3,6.7c-0.2,1.2-0.6,2.3-1,3.4c-1.2,4.4,0.6,9,2.9,13
	c6.8,11.7,18.8,21.5,32.3,21.7c-0.9,6.9-8,10.8-14.3,13.7c-8,3.6-16.5,7.1-25.3,6.6s-18-6.1-19.5-14.8c-0.5-3-0.5-6.6-3-8.2
	c-1.6-1-3.6-0.7-5.3-1.4c-2.4-1-3.6-3.7-4.4-6.2c-1.6-5.2-2.5-10.6-2.6-16c-0.1-6.4,0.7-13.5-2.9-18.8c-3.4-4.9-9.4-7.4-13.3-11.9
	c-3.6-4.2-7.5-9.2-13.4-10C740.3,196.6,723.4,207.7,718.6,195.9z"/>
<path class="st5" d="M741,277.1l18.1-14.7c0,0-12.4-6.7-13.9-12.5s-11.4,2.7-10.4,7.9C735.8,263,741,277.1,741,277.1z"/>
<path class="st6" d="M741.7,274.9l18.1-14.7c0,0-12.4-6.7-13.8-12.5s-11.4,2.7-10.4,7.9C736.6,260.8,741.7,274.9,741.7,274.9z"/>
<circle class="st5" cx="760.5" cy="272.5" r="1.4"/>
<circle class="st5" cx="760.5" cy="280.5" r="1.4"/>
<circle class="st5" cx="760.5" cy="288.5" r="1.4"/>
<g class="st13">
	<path d="M725.9,175.5c1.4-3.9,1.1-8.3,2.5-12.3c-0.6,0.9-1.1,1.8-1.5,2.8c-1.7,4.1-1.2,8.9-2.7,13l-0.1,0.2
		C724.7,178,725.4,176.8,725.9,175.5z"/>
	<path d="M840.1,274.5c-8,3.6-16.5,7.1-25.3,6.6s-18-6.1-19.5-14.8c-0.5-3-0.5-6.6-3-8.2c-1.6-1-3.6-0.7-5.3-1.4
		c-2.4-1-3.6-3.7-4.4-6.2c-1.6-5.2-2.5-10.6-2.6-16c-0.1-6.4,0.8-13.5-2.9-18.8c-3.4-4.9-9.4-7.4-13.3-11.9
		c-3.6-4.2-7.5-9.2-13.4-10c-8.1-1.1-25,10-29.8-1.8c-0.8-2.2-0.7-4.7,0.3-6.8c-0.3,0.6-0.7,1.2-1,1.8c-1.4,2.7-2.2,5.9-1.1,8.6
		c4.8,11.8,21.7,0.7,29.8,1.8c5.9,0.8,9.8,5.9,13.4,10c3.9,4.5,9.9,7,13.3,11.9c3.7,5.3,2.8,12.3,2.9,18.8c0.1,5.4,1,10.8,2.6,16
		c0.8,2.5,2,5.2,4.4,6.2c1.7,0.7,3.7,0.5,5.3,1.4c2.6,1.6,2.5,5.2,3,8.2c1.6,8.7,10.7,14.3,19.5,14.8s17.3-3.1,25.3-6.6
		c5.8-2.6,12.3-6.1,14-12C849.6,269.8,844.6,272.5,840.1,274.5z"/>
</g>
<linearGradient id="SVGID_3_" gradientUnits="userSpaceOnUse" x1="731.6293" y1="1164.3129" x2="731.6293" y2="576.3573" gradientTransform="matrix(-1 0 0 1 1108.8268 -358.14)">
	<stop  offset="0" style="stop-color:#808080;stop-opacity:0.25"/>
	<stop  offset="0.54" style="stop-color:#808080;stop-opacity:0.12"/>
	<stop  offset="1" style="stop-color:#808080;stop-opacity:0.1"/>
</linearGradient>
<path class="st15" d="M274,370.8v18c0,0,5.7,56.7,23.9,63c1.8,0.6,3.6,1.1,5.5,1.4c-0.7,5.2-1.3,10-1.8,13.8
	c-2,16.2-7.8,41.6-7.8,41.6l1.1,0.2c0,0.4-0.1,0.7-0.1,1c-1.9,15,0.3,39.4,0.3,39.4s2.8,18.2,6.9,36.6c2.4,11.1,2.4,22.6,0,33.7
	c1.3,13,0.1,26.1-3.7,38.6c-0.3,0.9-0.6,1.7-0.8,2.6l0,0c-6.5,22.9,2.4,57.7,6.6,73.6c3.9,14.6,5.4,31.8,5.7,35.6
	c-0.9,1.3-1.1,2.9-0.8,4.3c1.9,7.6-4.7,18.3-4.7,18.3c-0.5,0.6-0.9,1.3-1.2,2.1c-1.2,2.7-0.7,5.9,1.2,8.2c4.2,5.4,29,3.1,33.2,1.4
	c2.6-1,2.4-5.8,1.7-10.7c-0.4-3.1-1.1-6.3-1.3-8.6c-0.5-4.1,0.7-11,1.4-15l0.3-0.1l-0.1-0.7c0.3-1.4,0.5-2.3,0.5-2.3
	s-0.3,0.3-0.8,0.7l-6.6-31.8c5.1-20.1,0-73.9,0-73.9s11.5-20.8,12.5-52.5c1-31.2,8.8-41.3,9.1-41.6l0,0
	c16.2,8.2,36.7,96.7,36.7,96.7c-1.7,21.5,0.3,54.5,7.1,72.3c4.1,11.3,5.8,23.3,5,35.3c0.6,0.5,1.3,0.9,2.1,1.2
	c-0.4,3.9-1.2,9.8-3,12l0,0c-0.7,0.9-1,2.1-0.8,3.3c0.4,3.4,3.1,6.1,6.5,6.5c9.2,1.3,31.2,4.8,36.8,7.3c7.1,3.3,35,1,36.4-2.3
	c0.4-1.3,0.2-2.8-0.5-4c-1-2-2.6-3.7-4.5-4.8c-0.6-0.4-1.3-0.7-2-0.9c-5.3-1.7-15.2-5.4-17.9-9.2c0,0-12.4-10.6-15.9-16.4
	c-1.4-2.3-3.8-3.8-6.5-4H433c-0.7-16.7-3.9-93.6-6.3-96.8c-2.7-3.6,0-24.4,0-24.4l-4.4-33.7c0,0,0.7-57.1-5.7-67
	c-5.5-8.5-6.8-23.5-7-27.5c0-0.7,0-1,0-1c1.9-0.8,2.3-2,0-3.8c-8.2-6.5-10.5-60.5-10.8-66.7v-0.6c0.6,0.1,6.2,1.4,20.5-1.7
	c15.2-3.3,16.8-36.6,9.4-51.1c-4.7-9.1-5.2-16.1-5-20.1c0.3-4.5-0.1-9-1.1-13.4c-6.5-26.4-24.6-24.3-24.6-24.3l-30-12
	c-3.4-3-4.6-7.2-4.6-11.2c0-0.3,0-0.7,0-1c14-4.4,23.6-17.3,23.7-32c0-7.4-2.5-14.5-7-20.3l-0.1-0.2c0-0.1,0.1-0.3,0.1-0.4
	c0.3-1.1,0.2-2.2,0.5-3.3c0.8-2.6,3.6-3.9,5.5-5.9c1.9-2.1,2.9-4.8,2.9-7.6l0,0v-0.4c0-2.6-0.7-5.2-2-7.4c-2.2-3.8-6.4-7.1-10.8-6.3
	c-2.7,0.5-5.2,2.4-7.8,2.5s-5.1-1.3-7.5-2.4c-5.9-2.6-12.4-3.2-18.6-1.6c-1.9,0.4-3.7,1.2-5.1,2.5c-1,1.2-1.9,2.5-2.7,3.8
	c-3.1,3.9-8.8,4.7-13.8,5.6s-10.7,2.8-12.3,7.5c-0.4,1.1-0.5,2.2-0.5,3.4c0.1,2.3,0.5,4.5,1,6.7v0.2v-0.1c0.1,0.6,0.1,1.2-0.2,1.7
	c-0.8,1.2-2.7,0.7-4.2,1c-2.8,0.6-3.6,4.2-3.7,7c-0.1,3.2-0.2,6.5-0.3,9.8c0,0.4,0,0.8,0,1.1c0,0.9,0.1,1.9,0.3,2.8
	c0.6,1.7,1.6,3.2,2.9,4.5l11.1,13.1c4.4,5.1,8.9,11,9.3,17.4V307c0,0.5,0,1,0,1.5c-1.2,2.7-3,5-5.3,6.7l-0.4,0.3c0,0-8,3-29.2,15.2
	C267.9,343.1,274,370.8,274,370.8z M425.6,768.7L425.6,768.7c0,0-0.3,0.2-0.9,0.5L425.6,768.7z"/>
<path class="st16" d="M303.8,619.9c2.4-11.1,2.4-22.5,0-33.5c-4-18.4-6.7-36.5-6.7-36.5s-2.2-24.3-0.3-39.3
	c0.6-4.9,1.7-8.7,3.4-10.4c6.9-6.9,99,0,99,0l9.5,11.4c0,0,0,0.4,0,1c0.2,3.9,1.5,18.9,6.9,27.4c6.2,9.9,5.6,66.8,5.6,66.8l4.3,33.5
	c0,0-2.6,20.7,0,24.3s6.2,99.6,6.2,99.6s-11.3,8.1-20.7,9.6c-3.5,0.6-6.7,0.3-9-1.7c0.7-11.9-0.9-23.9-4.9-35.2
	c-6.6-17.7-8.5-50.6-6.9-72c0,0-20.1-88.1-35.8-96.4l0,0c-0.2,0.3-7.9,10.4-8.9,41.4c-1,31.6-12.2,52.3-12.2,52.3s4.9,53.6,0,73.7
	l6.9,33.9c0,0-12.2,3.3-28.9,0.7c0,0-1.3-19.7-5.6-36.2s-13.5-53.3-5.6-76C303.8,646,305.1,632.9,303.8,619.9z"/>
<path class="st11" d="M304.7,794.5c0.3-0.7,0.7-1.4,1.2-2.1c0,0,6.4-10.7,4.6-18.3c-1.3-5.3,5.8-9.3,10.1-11.2
	c2.7-1.2,5.7-1.4,8.5-0.5c2.1,0.7,4.1,1.9,4.7,4.5c1.3,5.8,6.7,0,6.7,0s-2.7,12-2,17.9c0.3,2.3,0.9,5.5,1.3,8.5
	c0.7,4.9,0.9,9.6-1.6,10.6c-4.1,1.7-28.3,4-32.4-1.4C304,800.4,303.5,797.2,304.7,794.5z"/>
<path class="st5" d="M220.5,795.6c5.2,0.4,10.5,0.6,15.7,0.3c1.7-0.1,3.5,0,5.2,0.2c7.4,0.7,11.8-0.3,14.4-1.5
	c0.7,4.9,0.9,9.6-1.6,10.6c-4.1,1.7-28.3,4-32.4-1.4C219.8,801.5,219.3,798.4,220.5,795.6z"/>
<path class="st5" d="M354.4,568.6l5.8-6.3c0,0,28.8,37,35,90.8c5.4,47.2,13.8,107,15.8,120.8c-3.5,0.6-6.7,0.3-9-1.7
	c0.7-11.9-0.9-23.9-4.9-35.2c-6.6-17.7-8.5-50.6-6.9-72C390.2,665,370.1,576.9,354.4,568.6z"/>
<path class="st17" d="M320.1,317.1c3.5-2.8,7.8-8.4,7.5-20c-0.3-5.8-1.3-11.6-3-17.2l42.4,13.3c-2.1,4.4-3.2,9.3-3.3,14.1
	c0,4.4,1.3,8.8,5.4,11.9c2.1,1.5,4.4,2.5,6.9,3.1c20.8,4.9-12.2,39.5-12.2,39.5l-24.2,10.4l-19.7-33l-4-19.7
	C317.3,318.9,318.8,318.1,320.1,317.1z"/>
<path class="st5" d="M367,293.2c-2.1,4.4-3.2,9.2-3.4,14.1c-11.7,3.8-24.6,0.9-33.5-7.6c-0.9-0.8-1.7-1.7-2.5-2.6
	c-0.3-5.8-1.3-11.6-3-17.2L367,293.2z"/>
<path class="st17" d="M319.7,274.2c0.1-18.4,15.1-33.3,33.5-33.2l0,0c18.5,0,33.5,15,33.5,33.6c0,18.5-15,33.5-33.6,33.5
	c-18.5,0-33.5-15-33.5-33.6C319.7,274.4,319.7,274.3,319.7,274.2z"/>
<path class="st5" d="M320.1,317.1c3,4.8,21.3,33.4,31.2,34.9c0,0,4.1,1.6,5.9-1c0,0,15.4-21.4,11.7-31.7c2.1,1.5,4.4,2.5,6.9,3.1
	c20.8,4.9-12.2,39.5-12.2,39.5l-24.2,10.4l-19.7-33l-4-19.7C317.3,318.9,318.8,318.1,320.1,317.1z"/>
<path class="st5" d="M300.1,500.2c6.9-6.9,99,0,99,0l9.5,11.4c0,0,0,0.4,0,1c-5.1,2.4-21.8,1.5-21.8,1.5s-26.2,1.3-39.7,3.3
	c-12.2,1.8-44.6-5.4-50.4-6.7C297.3,505.8,298.4,501.9,300.1,500.2z"/>
<path class="st6" d="M351.4,352.9c-10.8-1.6-31.7-35.5-31.7-35.5s-7.8,3-28.5,15.1s-14.8,39.6-14.8,39.6l33.5,45.4
	c0,0-4.6,34.3-6.6,50.4s-7.6,41.4-7.6,41.4s37.8,8.9,51.3,6.9s39.7-3.3,39.7-3.3s30.3,1.6,21.8-5.3c-8.5-6.9-10.5-67.1-10.5-67.1
	s5.2,1.7,20.1-1.6s16.4-36.5,9.2-51c-4.5-9-5.1-16-4.8-20c0.3-4.5-0.1-9-1.1-13.4c-6.4-26.3-24-24.2-24-24.2l-29.3-12
	c6.5,9.4-10.8,33.4-10.8,33.4C355.5,354.6,351.4,352.9,351.4,352.9z"/>
<path class="st5" d="M393.2,390.4c-0.7,4.6,8.2,14.1,8.2,14.1h-16.5c0,0,7.2-23.7,9.2-28s1.7-15.1,1.7-15.1S393.8,385.8,393.2,390.4
	z"/>
<path class="st17" d="M347.1,429.5c9.9-1.7,30.9-18.4,30.9-18.4l17.7-13.9l3.8,5.2c0,0-9.3,16.9-12.7,24.5s-39.7,16.4-39.7,16.4
	S337.2,431.2,347.1,429.5z"/>
<path class="st18" d="M347.1,429.5c9.9-1.7,30.9-18.4,30.9-18.4l17.7-13.9l3.8,5.2c0,0-9.3,16.9-12.7,24.5s-39.7,16.4-39.7,16.4
	S337.2,431.2,347.1,429.5z"/>
<path class="st17" d="M316.9,407.5c5.7,2.1,10.8-4.5,16.6-6c12-3,17,1.3,21.1,2.7c4.3,1.4,14.4,0.6,16.7,0.4h0.5l9.5,8.5l-10.2,23
	l-1.6-0.9l-5.9-3.3c-13.7-7.6-29.1-11.6-44.7-11.6h-3.2v-19.7L316.9,407.5z"/>
<path class="st5" d="M304,342.4c14.8,0.7,10.5,31.6,10.5,31.6c6.6,9.9,6.2,43,6.2,43s30,7.9,33.8,9.2s-4.4,23-4.4,23
	s-31.7,9.9-49.5,3.6S277.3,390,277.3,390v-17.9l6.6-7.4C284,364.7,289.2,341.7,304,342.4z"/>
<path class="st6" d="M303,342.4c14.8,0.7,10.5,31.6,10.5,31.6c6.6,9.9,6.2,43,6.2,43s30,7.9,33.8,9.2s-4.3,23-4.3,23
	s-31.7,9.9-49.5,3.6S276.4,390,276.4,390v-17.9l6.6-7.4C283,364.7,288.2,341.7,303,342.4z"/>
<path class="st5" d="M330.1,298.7c-1.4-1.3-2.6-2.7-3.7-4.2c-11.1-14.8-8.2-35.8,6.6-47c14.8-11.1,35.8-8.2,47,6.6v0.1
	c-0.7,2.2-2.5,3.7-4.7,4.1c-2.6,0.4-4.9-0.8-6.8-2.4c-1.7-1.6-4-2.6-6.4-2.6c-3.6-0.1-9,1.2-11.3,4.1c-1.8,2.4-1.9,5.6-1.9,8.6
	c0,2.8,0,5.5,0,8.2c0,2.4,0,5-1.1,7.2s-3.7,3.8-6,3.1c-2.8-0.9-4-4.5-6.8-5.2c-2.1-0.5-4.3,1-5.2,3c-0.8,2-1,4.2-0.8,6.4
	C329.1,292.1,329.5,295.4,330.1,298.7z"/>
<path class="st19" d="M368.5,255c-1.7-1.6-4-2.6-6.4-2.6c-3.6-0.1-9,1.2-11.3,4.1c-1.8,2.4-1.9,5.6-1.9,8.6v8.2c0,2.4,0,5-1.1,7.1
	s-3.7,3.8-6,3.1c-2.8-0.9-4-4.5-6.8-5.2c-2.1-0.5-4.3,1-5.2,3c-0.8,2-1,4.2-0.8,6.4c0.3,4.3,0.9,8.6,1.7,12.9c0.5,2.4,1.1,5,0.4,7.4
	s-3.5,4.3-5.7,3.3c0.9-7.5-4.2-14.2-9-20l-10.9-13c-1.2-1.3-2.2-2.8-2.8-4.5c-0.3-1.2-0.4-2.4-0.3-3.6c0.1-3.2,0.1-6.5,0.3-9.7
	c0.1-2.8,0.8-6.4,3.6-7c1.4-0.3,3.3,0.3,4.1-1c0.3-0.6,0.3-1.3,0.1-2c-0.6-3.2-1.7-6.6-0.6-9.7c1.6-4.7,7.1-6.6,12-7.5
	s10.4-1.7,13.4-5.6c0.8-1.3,1.7-2.5,2.7-3.8c1.4-1.3,3.1-2.2,5-2.5c6.1-1.5,12.5-1,18.2,1.6c2.3,1.1,4.7,2.5,7.3,2.4s5-2.1,7.7-2.5
	c4.3-0.7,8.4,2.5,10.5,6.3c2.6,4.7,2.9,11.2-0.8,15.1c-1.8,2-4.6,3.3-5.4,5.9c-0.3,1-0.2,2.2-0.5,3.2c-0.7,2.2-2.5,3.7-4.7,4.1
	C372.6,257.8,370.4,256.6,368.5,255z"/>
<path class="st5" d="M357.4,403l10.3-42.3C349.3,402.9,357.4,403,357.4,403z"/>
<path class="st5" d="M338.2,398.7l2.5-0.2c5.3-22.8-8.2-44.9-8.2-44.9C342.7,388.1,338.2,398.7,338.2,398.7z"/>
<path class="st5" d="M306.2,485.8c1.2-12.7,17.8-7.2,17.8-7.2C309.3,477.1,306.2,485.8,306.2,485.8z"/>
<path class="st5" d="M400.1,405.5l-2,36.2c-16.9,1-28.9-4-28.9-4c5.9-9.2,2.6-32.2,2.6-32.2H400.1z"/>
<path class="st5" d="M371.3,404.5L371.3,404.5h0.5l9.5,8.5l-10.2,23l-1.6-0.9C374.1,425.4,371.4,405.7,371.3,404.5z"/>
<path class="st6" d="M409.6,404.6l-11.5,36.2c-16.9,1-28.9-4-28.9-4c5.9-9.2,2.6-32.2,2.6-32.2H409.6z"/>
<path class="st11" d="M401.1,785.3L401.1,785.3c2.6-3.3,3.3-15.4,3.3-15.4c4.2,7.9,20-1.1,20-1.1c1.3-6.3,4.5-7.8,7.4-7.6
	c2.6,0.2,5,1.7,6.3,3.9c3.5,5.7,15.6,16.3,15.6,16.3c2.6,3.8,12.3,7.5,17.5,9.2c0.7,0.2,1.4,0.5,2,0.9c1.9,1.1,3.5,2.7,4.4,4.7
	c0.7,1.2,0.9,2.7,0.5,4c-1.3,3.3-28.6,5.6-35.5,2.3c-5.4-2.6-26.9-6-35.9-7.3c-3.4-0.5-6-3.1-6.4-6.5
	C400.1,787.5,400.4,786.3,401.1,785.3z"/>
<path class="st5" d="M401.1,785.3L401.1,785.3c5,2.2,15.3,5.3,36,8.6c21.7,3.4,31.6,0.5,36.1-2.5c1.9,1.1,3.5,2.7,4.4,4.7
	c0.7,1.2,0.9,2.7,0.5,4c-1.3,3.3-28.6,5.6-35.5,2.3c-5.4-2.6-26.9-6-35.9-7.3c-3.4-0.5-6-3.1-6.4-6.5
	C400,787.5,400.3,786.3,401.1,785.3z"/>
<g class="st13">
	<path d="M310.5,249.2c-0.5-2-0.8-4-1-6c-0.2,2.5,0.5,5,1,7.5v0.2C310.6,250.3,310.6,249.8,310.5,249.2z"/>
	<path d="M334.9,278.6c2.8,0.7,4,4.3,6.8,5.2c2.3,0.7,4.9-0.9,6-3.1s1.1-4.7,1.1-7.1c0-2.8,0-5.5,0-8.2c0-3,0.1-6.2,1.9-8.6
		c2.3-2.9,7.7-4.2,11.3-4.1c2.4,0,4.7,1,6.4,2.6c1.9,1.6,4.2,2.8,6.8,2.4c2.2-0.3,4.1-1.9,4.7-4.1c0.3-1.1,0.2-2.2,0.5-3.2
		c0.8-2.6,3.5-3.9,5.4-5.9c2-2.3,3-5.4,2.8-8.4c-0.1,2.6-1,5.1-2.8,7c-1.8,2-4.6,3.3-5.4,5.9c-0.3,1-0.2,2.2-0.5,3.2
		c-0.7,2.2-2.5,3.7-4.7,4.1c-2.6,0.4-4.9-0.8-6.8-2.4c-1.7-1.6-4-2.6-6.4-2.6c-3.6-0.1-9,1.2-11.3,4.1c-1.8,2.4-1.9,5.6-1.9,8.6
		c0,2.8,0,5.5,0,8.2c0,2.4,0,5-1.1,7.2s-3.7,3.8-6,3.1c-2.8-0.9-4-4.5-6.8-5.2c-2.1-0.5-4.3,1-5.2,3c-0.7,1.7-1,3.5-0.8,5.2
		c0-1.3,0.3-2.6,0.8-3.8C330.6,279.7,332.8,278.1,334.9,278.6z"/>
	<path d="M302.4,270.5c-0.1,1.2,0,2.4,0.3,3.6c0.6,1.7,1.6,3.2,2.8,4.5l10.9,13c4.2,5.1,8.7,11,9,17.4c0.4-7-4.4-13.4-9-18.9
		l-10.9-13c-1.2-1.3-2.2-2.8-2.8-4.5C302.5,271.9,302.4,271.2,302.4,270.5z"/>
	<path d="M325.4,310.2c0,0.5-0.1,1-0.1,1.4c2.3,1,5-0.9,5.7-3.3c0.3-1.1,0.4-2.1,0.3-3.2c0,0.6-0.2,1.2-0.3,1.8
		C330.3,309.2,327.6,311.1,325.4,310.2z"/>
</g>
<path class="st5" d="M424.4,768.8c12.5,5.3,15.9-0.7,15.9-0.7"/>
<path class="st5" d="M310.7,773.7c13.5,8.5,24.3-4.2,24.3-4.2"/>
<path class="st5" d="M307.6,625.4c0,0,4.2,4.7,3.9,2s-7.8-7.5-7.8-7.5L307.6,625.4z"/>
<path class="st5" d="M311.6,665.4c3.7,2.2,4.2-5.2-1.5-5.4c-3.4-0.2-6.7-1.5-9.3-3.7C300.7,656.3,307.8,663.2,311.6,665.4z"/>
<path class="st5" d="M305.9,675.5c-3,3.5-6.6-14.4-6.6-14.4"/>
<ellipse class="st0" cx="276.7" cy="714.9" rx="26.9" ry="4.5"/>
<ellipse class="st0" cx="170.7" cy="779.5" rx="26.9" ry="4.5"/>
<ellipse class="st6" cx="142.6" cy="721.7" rx="40.2" ry="6.8"/>
<path class="st6" d="M127.1,715.6c-1.8-1.5-3.2-3.5-3.8-5.8c-0.5-2.3,0.5-5,2.7-5.9c2.5-0.9,5.1,0.8,7.1,2.5s4.3,3.7,6.9,3.3
	c-2.7-2.5-4-6.2-3.2-9.8c0.1-0.7,0.4-1.4,0.9-2c1.4-1.5,3.8-0.8,5.5,0.3c5.2,3.7,6.7,10.7,6.7,17.1c0.5-2.3,0.1-4.7,0.1-7
	s0.7-5,2.6-6.2c1.2-0.7,2.6-1,4-1c2.3-0.1,4.9,0.2,6.5,1.9c2,2.1,1.5,5.7-0.3,8c-1.7,2.3-4.4,3.8-6.8,5.4c-1.9,1.2-3.6,2.7-4.8,4.6
	c-0.1,0.3-0.3,0.5-0.4,0.8h-14.6C132.9,720.1,129.8,718,127.1,715.6z"/>
<ellipse class="st0" cx="939.2" cy="766.1" rx="26.9" ry="4.5"/>
<path class="st20" d="M951.6,760.2c-4.6,2.8-27.6,5.7-44.9,5.5s4.6-21.1,5.7-26.4s20.1-1.4,24.8,1.9s20,3.8,20,3.8
	S956.3,757.4,951.6,760.2z"/>
<path class="st21" d="M900.1,761.2c-0.1,2.6,1.6,4.5,6.6,4.5c17.3,0.1,40.3-2.7,44.9-5.5s5.6-15.2,5.6-15.2h-0.5
	c-0.5,3.5-1.9,11.2-5.4,13.4c-4.6,2.8-27.6,5.7-44.9,5.5C902.7,763.9,900.8,762.9,900.1,761.2z"/>
</svg>
